<?xml version="1.0" standalone="no"?>
<!DOCTYPE svg PUBLIC "-//W3C//DTD SVG 20010904//EN"
 "http://www.w3.org/TR/2001/REC-SVG-20010904/DTD/svg10.dtd">
<svg version="1.0" xmlns="http://www.w3.org/2000/svg"
 width="512.000000pt" height="512.000000pt" viewBox="0 0 512.000000 512.000000"
 preserveAspectRatio="xMidYMid meet">
<metadata>
Created by potrace 1.11, written by Peter Selinger 2001-2013
</metadata>
<g transform="translate(0.000000,512.000000) scale(0.100000,-0.100000)"
fill="#000000" stroke="none">
<path d="M2300 4763 c-467 -24 -816 -66 -1063 -129 -121 -30 -194 -60 -207
-84 -5 -9 -7 -55 -4 -101 2 -46 11 -381 20 -744 27 -1175 32 -1334 50 -1415
41 -195 164 -392 329 -532 146 -124 280 -205 735 -442 112 -59 249 -137 303
-172 l99 -65 92 59 c112 74 213 130 376 212 561 281 801 472 929 741 23 46 50
120 62 164 24 95 31 234 54 1205 8 355 18 744 21 865 8 256 15 236 -105 279
-299 107 -1153 187 -1691 159z m745 -193 c454 -42 775 -96 838 -142 18 -13 18
-53 4 -1003 -14 -955 -15 -993 -36 -1069 -65 -243 -211 -415 -507 -598 -49
-30 -204 -115 -344 -187 -140 -73 -293 -158 -340 -189 -47 -32 -88 -58 -92
-60 -4 -2 -40 19 -80 46 -80 54 -251 148 -428 237 -431 216 -651 403 -749 638
-58 142 -60 157 -70 968 -16 1175 -16 1196 -2 1213 42 50 479 120 971 156 151
10 682 5 835 -10z"/>
<path d="M2270 4459 c-385 -24 -829 -89 -893 -132 -19 -12 -19 -27 -18 -337 1
-179 6 -593 11 -920 8 -551 10 -601 29 -673 35 -132 92 -229 201 -338 121
-122 231 -195 525 -347 250 -130 315 -166 387 -218 l48 -34 84 55 c47 31 189
110 317 176 268 139 380 207 486 292 101 81 175 173 228 282 74 152 73 136 85
1150 11 839 10 900 -5 912 -40 29 -318 78 -605 107 -341 35 -598 42 -880 25z
m465 -459 c39 -6 118 -22 178 -36 l107 -26 0 -122 0 -123 -82 33 c-160 64
-237 79 -403 79 -131 0 -159 -3 -217 -23 -136 -47 -260 -160 -332 -302 -86
-168 -106 -402 -50 -591 49 -165 183 -324 335 -397 46 -22 116 -47 156 -56
145 -32 349 -14 532 49 41 14 76 25 78 25 2 0 3 -49 3 -110 l0 -109 -67 -20
c-185 -54 -290 -71 -441 -71 -381 0 -677 171 -823 475 -56 117 -80 217 -86
371 -12 270 48 472 192 650 127 158 285 253 496 299 76 16 324 19 424 5z m-45
-740 l0 -130 130 0 131 0 -3 -66 -3 -66 -127 1 -127 2 -3 -133 -3 -133 -62 -3
-62 -3 -3 133 -3 133 -128 0 -127 0 0 68 0 67 130 0 130 0 0 130 0 130 65 0
65 0 0 -130z m730 0 l0 -130 130 0 131 0 -3 -66 -3 -66 -127 1 -127 2 -3 -133
-3 -133 -62 -3 -62 -3 -3 133 -3 133 -130 2 -130 1 0 64 0 63 133 3 132 3 0
129 0 130 65 0 65 0 0 -130z"/>
<path d="M753 4375 c-265 -48 -386 -163 -386 -370 0 -92 8 -135 70 -370 67
-252 62 -336 -22 -414 -54 -50 -112 -67 -251 -77 l-107 -7 7 -75 c3 -41 6 -85
6 -97 0 -22 3 -23 138 -27 151 -4 201 -19 256 -74 74 -74 88 -171 57 -416 -25
-199 -27 -312 -6 -393 42 -161 183 -263 410 -296 66 -9 345 -11 345 -2 0 2
-16 21 -35 41 -20 20 -54 65 -77 98 l-41 61 -101 5 c-84 4 -110 9 -153 31
-117 60 -130 130 -93 507 26 267 -48 439 -226 522 l-64 30 57 34 c127 75 176
167 176 329 0 83 -7 129 -42 275 -45 188 -58 277 -47 334 14 75 101 136 211
151 114 15 105 6 105 100 0 46 -3 90 -6 99 -8 20 -76 20 -181 1z"/>
<path d="M4188 4384 c-5 -4 -8 -49 -8 -100 l0 -92 28 -6 c15 -2 50 -8 77 -11
110 -15 197 -76 211 -151 11 -57 -2 -145 -47 -334 -36 -146 -43 -192 -42 -275
0 -162 49 -254 176 -329 l57 -34 -64 -30 c-127 -60 -205 -172 -226 -328 -8
-63 -7 -119 5 -254 29 -331 16 -388 -98 -447 -43 -22 -69 -27 -154 -31 l-103
-5 -25 -42 c-13 -24 -47 -68 -75 -98 -27 -30 -50 -57 -50 -59 0 -10 277 -9
345 1 227 33 368 135 410 296 20 80 19 184 -6 393 -12 98 -19 204 -16 238 8
109 58 187 147 227 36 17 71 22 181 25 l136 4 7 76 c11 131 21 118 -100 126
-137 10 -195 27 -249 77 -84 78 -89 168 -21 419 61 227 69 273 69 365 0 188
-100 300 -317 355 -87 22 -237 37 -248 24z"/>
<path d="M210 1865 c0 -1 64 -110 141 -241 78 -131 143 -244 146 -250 3 -8
-73 -31 -224 -67 -125 -31 -237 -57 -248 -59 -40 -7 314 -180 580 -283 118
-45 366 -128 370 -123 1 2 21 102 44 223 23 121 44 227 46 236 5 13 15 13 93
-4 70 -16 128 -20 297 -21 276 -1 306 10 131 48 -416 90 -877 265 -1258 478
-65 37 -118 65 -118 63z"/>
<path d="M4840 1828 c-102 -62 -433 -222 -570 -277 -254 -101 -514 -181 -754
-232 -154 -33 -116 -44 149 -43 170 1 227 5 298 21 60 13 90 16 93 9 2 -6 23
-111 47 -233 24 -123 46 -225 49 -228 6 -7 252 75 398 133 153 60 364 156 474
216 l89 49 -244 60 c-134 33 -245 61 -247 62 -1 1 64 113 144 249 80 136 145
248 143 250 -2 1 -33 -15 -69 -36z"/>
<path d="M1200 1224 c67 -23 430 -114 455 -114 19 0 24 8 34 61 7 34 11 63 9
64 -2 2 -21 0 -43 -5 -103 -24 -278 -22 -468 5 -25 4 -23 2 13 -11z"/>
<path d="M3423 1219 c3 -13 9 -43 13 -66 5 -35 10 -43 28 -43 44 1 502 118
493 127 -2 1 -28 -1 -58 -6 -151 -25 -359 -22 -458 5 -21 6 -23 5 -18 -17z"/>
<path d="M1045 905 c-31 -163 -56 -298 -54 -300 9 -8 331 -98 449 -125 831
-191 1686 -168 2495 66 88 25 168 49 178 51 9 3 17 13 17 22 0 16 -93 503
-106 558 -6 21 -8 20 -150 -27 -843 -283 -1760 -286 -2597 -9 -84 28 -157 52
-163 55 -7 3 -31 -99 -69 -291z m2838 38 c3 -16 4 -29 2 -31 -1 -2 -31 -11
-66 -20 -54 -15 -63 -21 -61 -37 5 -28 4 -28 68 -11 61 16 74 12 74 -25 0 -12
-17 -21 -57 -31 -52 -13 -58 -17 -55 -38 1 -13 4 -26 7 -28 2 -3 34 3 71 12
37 9 68 16 69 14 2 -2 6 -14 10 -28 6 -24 3 -26 -97 -52 -56 -15 -106 -24
-109 -20 -8 10 -73 262 -68 266 4 3 187 54 200 55 4 1 9 -11 12 -26z m-2483
-23 c7 -12 32 -282 26 -287 -2 -2 -19 0 -37 5 -27 6 -35 14 -39 38 -4 25 -11
30 -47 38 -37 8 -45 6 -60 -13 -15 -17 -23 -20 -48 -12 -16 4 -29 13 -28 18 2
10 93 146 140 210 21 29 26 31 55 22 17 -5 34 -13 38 -19z m286 -55 c8 -2 6
-31 -7 -97 -22 -115 -23 -128 -4 -128 7 0 37 -5 65 -11 49 -10 51 -12 45 -37
-4 -15 -8 -28 -10 -30 -4 -4 -194 34 -200 39 -3 4 41 237 50 266 3 10 22 10
61 -2z m1814 -10 c38 -19 58 -54 39 -66 -22 -14 -55 -10 -69 6 -20 24 -56 18
-80 -12 -28 -35 -21 -97 15 -133 21 -20 29 -23 52 -14 16 5 32 19 38 31 9 21
60 41 72 29 12 -11 -23 -79 -50 -100 -43 -31 -126 -29 -162 4 -55 51 -72 147
-36 206 35 57 121 80 181 49z m-1483 -43 c9 -5 9 -26 3 -77 -5 -39 -9 -87 -10
-107 l0 -36 66 -7 c63 -7 65 -8 62 -34 -3 -25 -5 -26 -68 -24 -36 1 -83 4
-105 8 l-40 6 14 139 c15 140 15 140 40 140 14 0 31 -4 38 -8z m1137 -133 c7
-74 11 -137 9 -141 -2 -5 -21 -8 -42 -8 -35 0 -40 4 -85 70 -27 39 -51 72 -55
74 -4 3 -2 -29 3 -71 10 -81 5 -93 -41 -93 -19 0 -22 7 -29 78 -4 42 -8 106
-8 142 l-1 65 36 3 c34 3 37 0 89 -77 30 -45 56 -81 58 -81 2 0 1 12 -2 28 -2
15 -8 53 -11 84 l-6 57 33 3 c18 2 34 3 36 2 1 -1 9 -61 16 -135z m-792 6 c-4
-155 -10 -185 -36 -185 -45 0 -47 8 -40 154 l7 137 36 -3 36 -3 -3 -100z m331
53 c8 -24 31 -87 50 -140 l36 -98 -38 0 c-31 0 -40 5 -49 26 -11 22 -17 25
-60 22 -40 -3 -47 -6 -50 -25 -3 -20 -10 -23 -44 -23 -28 0 -39 4 -36 13 3 6
25 69 49 139 l44 128 42 0 c39 0 42 -2 56 -42z"/>
<path d="M1313 815 c-19 -28 -20 -34 -7 -39 34 -13 44 -6 44 28 0 47 -11 51
-37 11z"/>
<path d="M2622 663 c-16 -53 -16 -53 13 -53 28 0 29 9 11 59 l-12 34 -12 -40z"/>
</g>
</svg>
