<?xml version="1.0" encoding="utf-8"?>
<!-- Generator: Adobe Illustrator 16.0.0, SVG Export Plug-In . SVG Version: 6.00 Build 0)  -->
<!DOCTYPE svg PUBLIC "-//W3C//DTD SVG 1.1//EN" "http://www.w3.org/Graphics/SVG/1.1/DTD/svg11.dtd">
<svg version="1.1" id="Layer_1" xmlns="http://www.w3.org/2000/svg" xmlns:xlink="http://www.w3.org/1999/xlink" x="0px" y="0px"
	 width="223.156px" height="162.34px" viewBox="0 0 223.156 162.34" enable-background="new 0 0 223.156 162.34"
	 xml:space="preserve">
<g>
	<path fill="#C18651" d="M112.115,39.836c-10.982,0-19.917-8.935-19.917-19.918S101.133,0,112.115,0
		c10.983,0,19.918,8.935,19.918,19.918S123.099,39.836,112.115,39.836z M112.115,4c-8.777,0-15.917,7.141-15.917,15.918
		s7.141,15.918,15.917,15.918c8.777,0,15.918-7.141,15.918-15.918S120.893,4,112.115,4z"/>
	<path fill="#C18651" d="M70.207,86.405c-0.105,0-0.211-0.009-0.318-0.025c-1.091-0.175-1.834-1.2-1.66-2.29
		c3.141-19.652,13.11-33.26,28.829-39.354c1.032-0.399,2.189,0.112,2.588,1.142c0.399,1.03-0.112,2.188-1.142,2.588
		c-14.523,5.63-23.38,17.828-26.325,36.255C72.022,85.704,71.172,86.405,70.207,86.405z"/>
</g>
<g>
	<path fill="#C18651" d="M153.45,86.176c-0.965,0-1.815-0.701-1.973-1.686c-2.92-18.274-11.765-30.395-26.287-36.025
		c-1.03-0.399-1.541-1.558-1.143-2.588c0.4-1.029,1.557-1.542,2.588-1.142c15.944,6.181,25.631,19.344,28.792,39.124
		c0.175,1.091-0.569,2.117-1.659,2.291C153.661,86.168,153.556,86.176,153.45,86.176z"/>
</g>
<g>
	<path fill="#C18651" d="M178.576,71.111c-10.983,0-19.919-8.935-19.919-19.917c0-10.983,8.936-19.918,19.919-19.918
		c10.982,0,19.917,8.936,19.917,19.918C198.493,62.176,189.559,71.111,178.576,71.111z M178.576,35.275
		c-8.777,0-15.919,7.141-15.919,15.918c0,8.777,7.142,15.917,15.919,15.917c8.776,0,15.917-7.141,15.917-15.917
		C194.493,42.417,187.353,35.275,178.576,35.275z"/>
	<path fill="#C18651" d="M152.499,162.34c-1.105,0-2-0.896-2-2c0-28.191,24.282-43.922,68.451-44.426
		c-2.005-16.438-12.602-30.178-28.065-36.173c-1.03-0.399-1.541-1.558-1.142-2.588c0.399-1.029,1.557-1.542,2.588-1.142
		c17.58,6.817,29.389,22.81,30.819,41.741c0.042,0.555-0.149,1.102-0.528,1.51c-0.378,0.408-0.909,0.641-1.466,0.641
		c-5.878,0-23.763,0-39.494,5.639c-18.024,6.463-27.163,18.17-27.163,34.799C154.499,161.443,153.603,162.34,152.499,162.34z"/>
	<path fill="#C18651" d="M136.667,119.635c-0.045,0-0.09-0.002-0.137-0.006c-1.102-0.072-1.935-1.027-1.861-2.129
		c1.271-18.901,12.594-35.188,28.85-41.489c1.033-0.4,2.189,0.113,2.588,1.142c0.399,1.03-0.111,2.188-1.142,2.588
		c-14.813,5.743-25.138,20.669-26.304,38.027C138.589,118.824,137.71,119.635,136.667,119.635z"/>
</g>
<path fill="#C18651" d="M112.115,114.115c-10.982,0-19.917-8.936-19.917-19.918s8.935-19.917,19.917-19.917
	c10.983,0,19.918,8.935,19.918,19.917S123.099,114.115,112.115,114.115z M112.115,78.28c-8.777,0-15.917,7.14-15.917,15.917
	s7.141,15.918,15.917,15.918c8.777,0,15.918-7.141,15.918-15.918S120.893,78.28,112.115,78.28z"/>
<g>
	<path fill="#C18651" d="M152.496,160.385c-1.005,0-1.87-0.756-1.985-1.777c-1.838-16.354-12.078-30.432-26.086-35.861
		c-1.03-0.4-1.541-1.559-1.143-2.588c0.399-1.031,1.559-1.539,2.588-1.143c15.381,5.963,26.613,21.328,28.615,39.145
		c0.124,1.098-0.666,2.088-1.764,2.211C152.646,160.381,152.571,160.385,152.496,160.385z"/>
</g>
<g>
	<g>
		<path fill="#C18651" d="M44.58,71.111c-10.983,0-19.918-8.935-19.918-19.917c0-10.983,8.935-19.918,19.918-19.918
			s19.918,8.936,19.918,19.918C64.498,62.176,55.563,71.111,44.58,71.111z M44.58,35.275c-8.777,0-15.918,7.141-15.918,15.918
			c0,8.777,7.141,15.917,15.918,15.917s15.918-7.141,15.918-15.917C60.498,42.417,53.357,35.275,44.58,35.275z"/>
		<path fill="#C18651" d="M70.657,162.34c-1.104,0-2-0.896-2-2c0-16.629-9.139-28.336-27.164-34.799
			C25.763,119.902,7.877,119.902,2,119.902c-0.557,0-1.088-0.232-1.466-0.641c-0.379-0.408-0.57-0.955-0.528-1.51
			c1.43-18.931,13.239-34.924,30.819-41.741c1.033-0.4,2.189,0.113,2.588,1.142c0.399,1.03-0.112,2.188-1.142,2.588
			C16.808,85.736,6.21,99.477,4.206,115.914c44.169,0.504,68.452,16.234,68.452,44.426C72.657,161.443,71.762,162.34,70.657,162.34z
			"/>
		<path fill="#C18651" d="M86.489,119.635c-1.043,0-1.922-0.811-1.994-1.867c-1.167-17.357-11.492-32.284-26.305-38.027
			c-1.03-0.399-1.541-1.558-1.142-2.588c0.399-1.029,1.557-1.542,2.588-1.142c16.255,6.301,27.579,22.587,28.85,41.489
			c0.074,1.102-0.759,2.057-1.861,2.129C86.58,119.633,86.534,119.635,86.489,119.635z"/>
	</g>
	<g>
		<path fill="#C18651" d="M70.66,160.385c-0.075,0-0.15-0.004-0.226-0.014c-1.098-0.123-1.887-1.113-1.764-2.211
			c2.002-17.816,13.235-33.182,28.615-39.145c1.032-0.396,2.189,0.111,2.588,1.143c0.399,1.029-0.112,2.188-1.142,2.588
			c-14.009,5.43-24.249,19.508-26.087,35.861C72.53,159.629,71.664,160.385,70.66,160.385z"/>
	</g>
</g>
</svg>
