<?xml version="1.0" encoding="utf-8"?>
<!-- Generator: Adobe Illustrator 16.0.0, SVG Export Plug-In . SVG Version: 6.00 Build 0)  -->
<!DOCTYPE svg PUBLIC "-//W3C//DTD SVG 1.1//EN" "http://www.w3.org/Graphics/SVG/1.1/DTD/svg11.dtd">
<svg version="1.1" id="Layer_1" xmlns="http://www.w3.org/2000/svg" xmlns:xlink="http://www.w3.org/1999/xlink" x="0px" y="0px"
	 width="207.795px" height="122.543px" viewBox="0 0 207.795 122.543" enable-background="new 0 0 207.795 122.543"
	 xml:space="preserve">
<path fill="#C18651" d="M103.323,85.518c-0.271,0-0.544-0.057-0.798-0.166L1.202,41.256c-0.75-0.327-1.226-1.077-1.201-1.894
	c0.024-0.818,0.545-1.538,1.312-1.818l102.47-37.422c0.439-0.161,0.921-0.162,1.36-0.004l101.325,36.273
	c0.771,0.276,1.296,0.993,1.325,1.811c0.029,0.817-0.442,1.571-1.191,1.901L104.131,85.346
	C103.874,85.461,103.599,85.518,103.323,85.518z M7.386,39.585l95.932,41.749l97.086-42.866L104.477,4.127L7.386,39.585z"/>
<path fill="#C18651" d="M149.833,122.543H57.962c-4.342,0-10.517-4.521-10.517-8.93v-53.07c0-1,4-1,4,0v53.07
	c0,1.854,4.1,4.93,6.517,4.93h91.871c1.308,0,1.612-1.797,1.612-4.93v-53.07c0-1,4-1,4,0v53.07
	C155.445,121.201,152.062,122.543,149.833,122.543z"/>
<path fill="#C18651" d="M103.897,48.501c-6.776,0-11.887-3.101-11.887-7.213c0-4.112,5.11-7.213,11.887-7.213
	s11.887,3.101,11.887,7.213C115.784,45.4,110.674,48.501,103.897,48.501z M103.897,38.075c-4.741,0-7.887,1.934-7.887,3.213
	s3.146,3.213,7.887,3.213s7.887-1.934,7.887-3.213S108.639,38.075,103.897,38.075z"/>
<path fill="#C18651" d="M36.654,104.543H22.582c-0.55,0-1.075-0.331-1.452-0.729c-0.378-0.4-0.575-0.989-0.545-1.536l1.371-24.968
	c-0.333-0.929-0.526-2.05-0.526-3.076c0-4.5,3.673-8.167,8.188-8.167s8.188,3.694,8.188,8.241c0,1.008-0.185,2.042-0.524,2.966
	l1.369,24.952c0.03,0.549-0.167,1.188-0.545,1.588C37.729,104.212,37.204,104.543,36.654,104.543z M24.695,100.543h9.847
	L33.264,77.15c-0.018-0.318,0.042-0.689,0.172-0.98c0.232-0.518,0.371-1.222,0.371-1.839c0-2.34-1.879-4.259-4.188-4.259
	s-4.188,1.86-4.188,4.155c0,0.637,0.153,1.421,0.373,1.912c0.131,0.291,0.189,0.712,0.172,1.03L24.695,100.543z"/>
<path fill="#C18651" d="M25.445,68.543V51.901c0-0.997,0.914-1.842,1.901-1.98l63.983-8.979c1.094-0.152,2.15,0.608,2.304,1.702
	s-0.765,2.105-1.859,2.259L29.445,53.64v14.903C29.445,69.543,25.445,69.543,25.445,68.543z"/>
</svg>
