<?xml version="1.0" encoding="utf-8"?>
<!-- Generator: Adobe Illustrator 16.0.0, SVG Export Plug-In . SVG Version: 6.00 Build 0)  -->
<!DOCTYPE svg PUBLIC "-//W3C//DTD SVG 1.1//EN" "http://www.w3.org/Graphics/SVG/1.1/DTD/svg11.dtd">
<svg version="1.1" id="Layer_1" xmlns="http://www.w3.org/2000/svg" xmlns:xlink="http://www.w3.org/1999/xlink" x="0px" y="0px"
	 width="176.497px" height="151.914px" viewBox="0 0 176.497 151.914" enable-background="new 0 0 176.497 151.914"
	 xml:space="preserve">
<path fill="#C18651" d="M94.684,151.914c-0.1,0-0.201-0.008-0.303-0.023c-2.857-0.438-70.073-10.729-77.585-12.061
	c-8.2-1.455-16.682-9.742-16.682-21.094c0-5.602,1.853-10.795,5.141-14.564c-3.347-3.812-5.232-9.025-5.232-14.617
	c0-5.623,1.87-10.844,5.187-14.638C1.878,71.113,0,65.887,0,60.267c0-11.684,8.944-18.091,15.672-21.893L83.108,0.26
	c0.373-0.211,0.803-0.299,1.23-0.244l90.405,11.24c0.844,0.105,1.528,0.731,1.708,1.562c0.179,0.831-0.187,1.685-0.911,2.128
	L94.908,64.305c-0.416,0.254-0.912,0.349-1.391,0.264L16.132,50.942c-0.885,0.181-4.609,1.333-5.31,7.958
	c-0.734,6.952,3.585,9.411,4.456,9.833l78.204,13.275l74.63-43.658c0.13-0.077,0.269-0.138,0.413-0.183
	c0.138-0.042,1.379-0.419,2.7-0.419c3.049,0,4.131,1.979,4.131,3.675c0,3.307-0.35,5.525-5.207,8.433L95.38,94.613
	c-0.409,0.246-0.892,0.334-1.362,0.256l-77.7-13.193c-0.043-0.008-0.086-0.016-0.128-0.026c0,0.001,0,0.001,0,0.001
	c-0.003,0-0.244-0.047-0.607-0.047c-2.792,0-4.61,2.317-5.258,6.701c-1.128,7.627,3.994,9.688,4.828,9.969l79.975,12.248
	l72.989-42.443c0.078-0.045,0.16-0.086,0.244-0.121c0.166-0.068,1.67-0.67,3.113-0.67c2.128,0,3.557,1.348,3.557,3.355
	c0,2.892-0.561,6.183-4.725,8.661C167,81.271,96.89,122.568,96.182,122.984c-0.4,0.236-0.873,0.322-1.332,0.252l-78.319-12.572
	c-0.867,0.062-4.896,0.689-5.714,6.986c-0.793,6.105,2.38,7.938,4.481,9.152c0.317,0.182,0.603,0.348,0.857,0.521
	c3.984,1.156,48.095,8.092,77.652,12.605l74.311-43.139c0.338-0.193,2.062-1.137,3.658-1.137c1.946,0,3.254,1.348,3.254,3.352
	c0,3.297-0.823,6.01-4.845,8.535c-3.327,2.092-71.58,42.381-74.483,44.096C95.391,151.818,95.04,151.914,94.684,151.914z
	 M84.501,4.067l-66.86,37.789C11.29,45.446,4,50.782,4,60.267c0,5.189,2,10.113,5.352,13.172c0.415,0.379,0.651,0.915,0.651,1.477
	s-0.236,1.098-0.651,1.477c-3.387,3.092-5.329,7.889-5.329,13.161c0,5.23,1.959,10.02,5.375,13.139
	c0.415,0.379,0.651,0.914,0.651,1.477s-0.237,1.098-0.652,1.477c-3.357,3.064-5.283,7.836-5.283,13.09
	c0,9.254,6.803,15.988,13.38,17.154c7.059,1.254,69.419,10.809,76.787,11.938c6.983-4.121,70.66-41.715,73.775-43.674
	c2.375-1.492,2.863-2.707,2.953-4.309c-0.312,0.115-0.645,0.268-0.898,0.412l-74.906,43.484c-0.393,0.23-0.853,0.316-1.305,0.248
	c-78.198-11.934-79.432-12.914-79.958-13.334c-0.091-0.07-0.411-0.256-0.645-0.391c-2.27-1.311-7.584-4.381-6.447-13.131
	c1.077-8.287,6.883-10.477,9.802-10.477c0.106,0,0.212,0.01,0.317,0.025l77.803,12.488c6.995-4.119,70.355-41.442,73.487-43.306
	c2.089-1.243,2.659-2.593,2.754-4.532c-0.376,0.067-0.778,0.191-1.024,0.281l-73.463,42.718c-0.396,0.23-0.857,0.318-1.308,0.248
	l-80.824-12.377c-0.086-0.014-0.172-0.033-0.256-0.057c-3.285-0.955-9.137-5.201-7.772-14.43c0.351-2.373,2.052-10.115,9.215-10.115
	c0.711,0,1.237,0.092,1.449,0.137l76.928,13.062l74.135-44.378c3.108-1.861,3.255-2.535,3.262-4.672
	c-0.039-0.002-0.083-0.003-0.131-0.003c-0.474,0-1.008,0.108-1.318,0.186L94.873,85.828c-0.405,0.238-0.883,0.322-1.344,0.246
	L14.363,72.635c-0.135-0.023-0.268-0.06-0.395-0.11c-2.858-1.121-8.026-5.499-7.123-14.044c0.915-8.659,6.396-11.346,9.167-11.558
	c0.166-0.013,0.335-0.005,0.499,0.024l76.954,13.55l75.111-45.978L84.501,4.067z"/>
<path fill="#C18651" d="M114.877,33.813c-0.111,0-0.223-0.009-0.334-0.028L69.829,26.21c-0.838-0.142-1.495-0.797-1.638-1.635
	c-0.143-0.837,0.259-1.674,1.002-2.086l18.081-10.018c0.376-0.208,0.811-0.287,1.235-0.233l47.402,6.353
	c0.857,0.115,1.545,0.77,1.701,1.622s-0.254,1.708-1.016,2.12l-20.768,11.24C115.535,33.731,115.208,33.813,114.877,33.813z
	 M76.127,23.221l38.404,6.506l14.758-7.987l-40.655-5.448L76.127,23.221z"/>
</svg>
