<?xml version="1.0" encoding="utf-8"?>
<!-- Generator: Adobe Illustrator 16.0.0, SVG Export Plug-In . SVG Version: 6.00 Build 0)  -->
<!DOCTYPE svg PUBLIC "-//W3C//DTD SVG 1.1//EN" "http://www.w3.org/Graphics/SVG/1.1/DTD/svg11.dtd">
<svg version="1.1" id="Layer_1" xmlns="http://www.w3.org/2000/svg" xmlns:xlink="http://www.w3.org/1999/xlink" x="0px" y="0px"
	 width="25.764px" height="25.72px" viewBox="0 0 25.764 25.72" enable-background="new 0 0 25.764 25.72" xml:space="preserve">
<path fill="#C38750" d="M5.768,25.72H0.424V8.541h5.344V25.72z M9.118,8.541h5.118v2.347h0.073c0.712-1.351,2.455-2.775,5.053-2.775
	c5.402,0,6.401,3.557,6.401,8.184v9.423h-5.335v-8.354c0-1.992-0.039-4.556-2.775-4.556c-2.778,0-3.202,2.17-3.202,4.411v8.498
	H9.118V8.541z M3.098,0c1.708,0,3.095,1.388,3.095,3.095c0,1.709-1.387,3.097-3.095,3.097C1.382,6.191,0,4.804,0,3.095
	C0,1.388,1.382,0,3.098,0z"/>
</svg>
