<?xml version="1.0" encoding="utf-8"?>
<!-- Generator: Adobe Illustrator 16.0.0, SVG Export Plug-In . SVG Version: 6.00 Build 0)  -->
<!DOCTYPE svg PUBLIC "-//W3C//DTD SVG 1.1//EN" "http://www.w3.org/Graphics/SVG/1.1/DTD/svg11.dtd">
<svg version="1.1" id="Layer_1" xmlns="http://www.w3.org/2000/svg" xmlns:xlink="http://www.w3.org/1999/xlink" x="0px" y="0px"
	 width="487.333px" height="577.333px" viewBox="390.667 99.333 487.333 577.333"
	 enable-background="new 390.667 99.333 487.333 577.333" xml:space="preserve">
<g>
	<path fill="#C38750" d="M802.667,625.333V470.667H854v206H390.667v-206H442v154.666H802.667z"/>
	<path fill="#C38750" d="M498.667,456l252,52.667L761.333,458l-252-52.667L498.667,456z M532,336l233.333,108.667L786.667,398
		L553.333,288.667L532,336L532,336z M596.667,221.333l198,164.667l32.666-39.333L629.333,182L596.667,221.333z M724.667,99.333
		L683.333,130l153.334,206.667L878,306L724.667,99.333z M493.333,573.333h257.334V522H493.333V573.333z"/>
</g>
</svg>
