<?xml version="1.0" encoding="utf-8"?>
<!-- Generator: Adobe Illustrator 16.0.0, SVG Export Plug-In . SVG Version: 6.00 Build 0)  -->
<!DOCTYPE svg PUBLIC "-//W3C//DTD SVG 1.1//EN" "http://www.w3.org/Graphics/SVG/1.1/DTD/svg11.dtd">
<svg version="1.1" id="Layer_1" xmlns="http://www.w3.org/2000/svg" xmlns:xlink="http://www.w3.org/1999/xlink" x="0px" y="0px"
	 width="174px" height="159.348px" viewBox="0 0 174 159.348" enable-background="new 0 0 174 159.348" xml:space="preserve">
<path fill="#C18651" d="M172.358,159.348h-170c-1.104,0-2.358-1.105-2.358-2.209v-10.49c0-1.684,1.209-4.301,6.907-4.301h162.242
	c1.425,0,4.851-0.209,4.851,4.301v10.49C174,158.242,173.463,159.348,172.358,159.348z M4,155.348h166v-8.699
	c0-0.201,0.166-0.237,0.152-0.327c-0.17-0.037-0.333,0.026-1.003,0.026H6.907c-1.983,0-2.652,0.247-2.725,0.313
	C4.184,146.667,4,146.596,4,146.648V155.348z"/>
<path fill="#C18651" d="M158.358,138.348h-143c-1.104,0-2.358-1.105-2.358-2.209v-6.383c0-3.617,5.151-3.408,7.197-3.408H25V59.138
	c0-1.104,1.254-1.791,2.358-1.791h20c1.104,0,1.642,0.686,1.642,1.791v67.209h9V59.138c0-1.104,1.254-1.791,2.358-1.791h20
	c1.104,0,1.642,0.686,1.642,1.791v67.209h11V59.138c0-1.104,1.254-1.791,2.358-1.791h20c1.104,0,1.642,0.686,1.642,1.791v67.209h9
	V59.138c0-1.104,1.254-1.791,2.358-1.791h20c1.104,0,1.642,0.686,1.642,1.791v67.209h5.852c1.349,0,4.148-0.209,4.148,3.408v6.383
	C160,137.242,159.463,138.348,158.358,138.348z M17,134.348h139v-4.205c0-0.004-0.012,0.205-0.148,0.205h-7.493
	c-1.104,0-2.358-1.105-2.358-2.209V61.348h-16v66.791c0,1.104-0.537,2.209-1.642,2.209h-13c-1.104,0-2.358-1.105-2.358-2.209V61.348
	H97v66.791c0,1.104-0.537,2.209-1.642,2.209h-15c-1.104,0-2.358-1.105-2.358-2.209V61.348H62v66.791
	c0,1.104-0.537,2.209-1.642,2.209h-13c-1.104,0-2.358-1.105-2.358-2.209V61.348H29v66.791c0,1.104-0.537,2.209-1.642,2.209h-7.161
	c-1.579,0-2.197-0.115-3.197-0.004V134.348z"/>
<path fill="#C18651" d="M155.685,52.348H20.373c-2.31,0-7.373-2.624-7.373-5.425v-0.575H4.358C3.254,46.348,2,45.243,2,44.138V35.23
	c0-0.821,0.68-1.558,1.444-1.86L87.533,0.14c0.473-0.187,1.043-0.187,1.516,0l83.844,33.23c0.764,0.302,1.107,1.039,1.107,1.86
	v8.908c0,1.104-0.537,2.209-1.642,2.209H160v0.575C160,49.101,158.58,52.348,155.685,52.348z M17,46.577
	c1,0.618,2.697,1.771,3.373,1.771h135.313c0.231,0,0.313-0.989,0.313-1.425v-2.785c0-1.104,1.254-1.791,2.358-1.791H170v-5.758
	L88,4.15L6,36.589v5.758h9.358c1.104,0,1.642,0.686,1.642,1.791V46.577z"/>
</svg>
