<?xml version="1.0" encoding="utf-8"?>
<!-- Generator: Adobe Illustrator 16.0.0, SVG Export Plug-In . SVG Version: 6.00 Build 0)  -->
<!DOCTYPE svg PUBLIC "-//W3C//DTD SVG 1.1//EN" "http://www.w3.org/Graphics/SVG/1.1/DTD/svg11.dtd">
<svg version="1.1" id="Logo__x2014__FIXED" xmlns="http://www.w3.org/2000/svg" xmlns:xlink="http://www.w3.org/1999/xlink" x="0px"
	 y="0px" width="250px" height="203.178px" viewBox="0 0 250 203.178" enable-background="new 0 0 250 203.178"
	 xml:space="preserve">
<path fill="#FFFFFF" d="M78.623,203.178c94.344,0,145.936-78.161,145.936-145.936c0-2.221-0.045-4.432-0.146-6.631
	c10.015-7.239,18.72-16.272,25.588-26.557c-9.19,4.082-19.081,6.834-29.455,8.074c10.589-6.349,18.72-16.396,22.554-28.373
	c-9.913,5.875-20.886,10.149-32.568,12.45C201.171,6.236,187.841,0,173.091,0c-28.328,0-51.299,22.971-51.299,51.288
	c0,4.026,0.451,7.939,1.331,11.695C80.495,60.84,42.695,40.429,17.4,9.394c-4.409,7.578-6.947,16.385-6.947,25.779
	c0,17.795,9.056,33.504,22.825,42.694c-8.413-0.259-16.318-2.571-23.23-6.417c-0.011,0.214-0.011,0.429-0.011,0.654
	c0,24.843,17.682,45.582,41.15,50.285c-4.308,1.172-8.841,1.805-13.521,1.805c-3.304,0-6.518-0.327-9.642-0.926
	c6.529,20.378,25.463,35.207,47.916,35.625c-17.559,13.758-39.673,21.956-63.704,21.956c-4.139,0-8.221-0.237-12.235-0.711
	C22.701,194.687,49.653,203.178,78.623,203.178"/>
</svg>
