<?xml version="1.0" encoding="utf-8"?>
<!-- Generator: Adobe Illustrator 16.0.0, SVG Export Plug-In . SVG Version: 6.00 Build 0)  -->
<!DOCTYPE svg PUBLIC "-//W3C//DTD SVG 1.1 Tiny//EN" "http://www.w3.org/Graphics/SVG/1.1/DTD/svg11-tiny.dtd">
<svg version="1.1" baseProfile="tiny" id="Layer_1" xmlns="http://www.w3.org/2000/svg" xmlns:xlink="http://www.w3.org/1999/xlink"
	 x="0px" y="0px" width="127.559px" height="12.911px" viewBox="0 0 127.559 12.911" xml:space="preserve">
<g>
	<path fill="#FFFFFF" d="M2.66,1.523H0.806v-1.39H2.66V1.523z M2.66,10.036H0.806V3.167H2.66V10.036z"/>
	<path fill="#FFFFFF" d="M5.748,3.167l0.083,0.984C6.059,3.8,6.34,3.527,6.675,3.333s0.709-0.292,1.124-0.292
		c0.694,0,1.236,0.218,1.625,0.654s0.584,1.119,0.584,2.05v4.291h-1.86V5.741c0-0.462-0.093-0.79-0.279-0.983S7.4,4.469,7.024,4.469
		c-0.246,0-0.465,0.05-0.66,0.149S6.006,4.859,5.875,5.042v4.994H4.021V3.167H5.748z"/>
	<path fill="#FFFFFF" d="M11.744,10.036V4.469h-1.022V3.167h1.022V2.406c0-0.77,0.222-1.364,0.667-1.78
		C12.854,0.208,13.479,0,14.283,0c0.157,0,0.316,0.012,0.479,0.035c0.163,0.023,0.341,0.056,0.536,0.099L15.14,1.511
		c-0.102-0.017-0.2-0.032-0.295-0.044c-0.095-0.013-0.206-0.019-0.333-0.019c-0.3,0-0.528,0.083-0.683,0.248
		c-0.154,0.165-0.231,0.402-0.231,0.711v0.762h1.365v1.301h-1.365v5.567H11.744z"/>
	<path fill="#FFFFFF" d="M15.492,6.538c0-1.024,0.286-1.863,0.857-2.517c0.571-0.653,1.363-0.98,2.374-0.98
		c1.016,0,1.811,0.326,2.387,0.978s0.863,1.492,0.863,2.52v0.133c0,1.033-0.287,1.874-0.86,2.523
		c-0.573,0.649-1.366,0.974-2.377,0.974c-1.016,0-1.81-0.325-2.384-0.974c-0.573-0.65-0.86-1.491-0.86-2.523V6.538z M17.339,6.668
		c0,0.625,0.11,1.127,0.33,1.505c0.22,0.378,0.576,0.567,1.066,0.567c0.478,0,0.828-0.19,1.051-0.57
		c0.222-0.38,0.333-0.881,0.333-1.502V6.535c0-0.608-0.112-1.105-0.336-1.49c-0.224-0.384-0.578-0.577-1.06-0.577
		c-0.478,0-0.828,0.193-1.051,0.58c-0.222,0.387-0.333,0.882-0.333,1.486V6.668z"/>
	<path fill="#FFFFFF" d="M33.256,6.779c-0.038,0.922-0.309,1.718-0.812,2.387s-1.257,1.003-2.26,1.003
		c-0.33,0-0.616-0.093-0.856-0.279c-0.242-0.186-0.413-0.446-0.515-0.781c-0.187,0.347-0.418,0.607-0.695,0.781
		c-0.277,0.173-0.602,0.26-0.974,0.26c-0.597,0-1.055-0.252-1.375-0.755c-0.319-0.503-0.437-1.17-0.352-2
		c0.106-1.075,0.41-1.936,0.911-2.583c0.502-0.647,1.11-0.971,1.825-0.971c0.491,0,0.886,0.055,1.184,0.165
		c0.299,0.11,0.626,0.279,0.981,0.508l-0.02,0.025h0.031l-0.323,3.637c-0.029,0.402,0,0.677,0.089,0.825s0.209,0.222,0.361,0.222
		c0.487,0,0.878-0.23,1.172-0.692s0.458-1.045,0.492-1.752c0.067-1.494-0.222-2.66-0.867-3.498S29.61,2.025,28.26,2.025
		c-1.282,0-2.306,0.451-3.072,1.352s-1.181,2.109-1.244,3.625c-0.072,1.502,0.237,2.687,0.927,3.555s1.682,1.301,2.977,1.301
		c0.359,0,0.731-0.042,1.114-0.127s0.712-0.19,0.986-0.317l0.242,0.933c-0.284,0.178-0.645,0.316-1.083,0.416
		c-0.438,0.099-0.866,0.149-1.285,0.149c-1.676,0-2.968-0.527-3.875-1.581c-0.908-1.054-1.326-2.497-1.254-4.329
		c0.076-1.807,0.617-3.253,1.622-4.339c1.005-1.085,2.328-1.628,3.971-1.628c1.637,0,2.892,0.513,3.764,1.539
		C32.922,3.6,33.323,5.002,33.256,6.779z M26.845,7.39c-0.042,0.539-0.003,0.947,0.117,1.226c0.121,0.278,0.316,0.417,0.587,0.417
		c0.237,0,0.452-0.055,0.644-0.166s0.365-0.314,0.518-0.611c0-0.017,0-0.031,0-0.042c0-0.01,0.002-0.024,0.007-0.041l0.279-3.158
		c-0.098-0.03-0.195-0.053-0.293-0.07c-0.097-0.017-0.198-0.025-0.305-0.025c-0.469,0-0.827,0.205-1.072,0.614
		S26.921,6.562,26.845,7.39z"/>
	<path fill="#FFFFFF" d="M37.271,8.741c0.33,0,0.595-0.096,0.794-0.287c0.198-0.191,0.298-0.447,0.298-0.767h1.683l0.019,0.038
		C40.08,8.419,39.819,9,39.279,9.467c-0.539,0.468-1.209,0.702-2.009,0.702c-1.024,0-1.813-0.324-2.368-0.971
		c-0.554-0.647-0.831-1.479-0.831-2.495v-0.19c0-1.011,0.276-1.843,0.828-2.495c0.553-0.652,1.341-0.978,2.364-0.978
		c0.847,0,1.529,0.241,2.048,0.724s0.769,1.117,0.752,1.904l-0.013,0.038h-1.688c0-0.355-0.098-0.65-0.292-0.886
		c-0.194-0.234-0.463-0.352-0.807-0.352c-0.49,0-0.836,0.19-1.037,0.57c-0.201,0.38-0.302,0.871-0.302,1.471V6.7
		c0,0.613,0.101,1.106,0.302,1.48C36.428,8.554,36.775,8.741,37.271,8.741z"/>
	<path fill="#FFFFFF" d="M47.183,6.792c0,1.016-0.234,1.833-0.705,2.45c-0.469,0.618-1.125,0.927-1.967,0.927
		c-0.36,0-0.68-0.067-0.959-0.2c-0.279-0.134-0.519-0.329-0.717-0.587v3.294h-1.848V3.167h1.67l0.107,0.812
		c0.203-0.3,0.447-0.532,0.733-0.695c0.285-0.163,0.618-0.244,0.999-0.244c0.852,0,1.512,0.332,1.98,0.997
		c0.471,0.665,0.705,1.538,0.705,2.622V6.792z M45.329,6.649c0-0.648-0.107-1.174-0.324-1.577c-0.215-0.403-0.545-0.604-0.99-0.604
		c-0.279,0-0.517,0.057-0.714,0.172c-0.196,0.114-0.353,0.277-0.466,0.489v3.013c0.113,0.195,0.27,0.343,0.466,0.445
		c0.197,0.102,0.439,0.152,0.728,0.152c0.448,0,0.777-0.176,0.986-0.528c0.21-0.352,0.314-0.828,0.314-1.43V6.649z"/>
	<path fill="#FFFFFF" d="M54.391,6.792c0,1.016-0.234,1.833-0.705,2.45c-0.469,0.618-1.125,0.927-1.967,0.927
		c-0.36,0-0.68-0.067-0.959-0.2c-0.279-0.134-0.519-0.329-0.717-0.587v3.294h-1.848V3.167h1.67l0.107,0.812
		c0.203-0.3,0.447-0.532,0.733-0.695c0.285-0.163,0.618-0.244,0.999-0.244c0.852,0,1.512,0.332,1.98,0.997
		c0.471,0.665,0.705,1.538,0.705,2.622V6.792z M52.537,6.649c0-0.648-0.107-1.174-0.324-1.577c-0.215-0.403-0.545-0.604-0.99-0.604
		c-0.279,0-0.517,0.057-0.714,0.172c-0.196,0.114-0.353,0.277-0.466,0.489v3.013c0.113,0.195,0.27,0.343,0.466,0.445
		c0.197,0.102,0.439,0.152,0.728,0.152c0.448,0,0.777-0.176,0.986-0.528c0.21-0.352,0.314-0.828,0.314-1.43V6.649z"/>
	<path fill="#FFFFFF" d="M59.435,10.036c-0.068-0.157-0.126-0.322-0.175-0.495s-0.084-0.351-0.104-0.533
		c-0.191,0.334-0.441,0.611-0.753,0.832c-0.311,0.22-0.683,0.33-1.114,0.33c-0.719,0-1.273-0.185-1.662-0.555
		c-0.39-0.371-0.584-0.875-0.584-1.514c0-0.673,0.259-1.194,0.777-1.565c0.519-0.37,1.274-0.555,2.27-0.555h1.034V5.434
		c0-0.33-0.087-0.586-0.261-0.768c-0.173-0.182-0.429-0.273-0.768-0.273c-0.301,0-0.532,0.073-0.695,0.219
		c-0.163,0.146-0.244,0.348-0.244,0.606l-1.79-0.006l-0.007-0.038c-0.029-0.58,0.223-1.08,0.756-1.501
		c0.533-0.421,1.233-0.632,2.102-0.632c0.82,0,1.487,0.208,1.999,0.625c0.512,0.417,0.769,1.011,0.769,1.781v2.837
		c0,0.322,0.023,0.624,0.072,0.908s0.126,0.565,0.232,0.844H59.435z M57.739,8.798c0.326,0,0.615-0.081,0.869-0.241
		s0.426-0.347,0.515-0.559V7.027h-1.034c-0.395,0-0.692,0.099-0.896,0.295c-0.203,0.197-0.305,0.435-0.305,0.714
		c0,0.229,0.076,0.413,0.229,0.552S57.477,8.798,57.739,8.798z"/>
	<path fill="#FFFFFF" d="M64.205,10.036h-1.854V0.133h1.854V10.036z"/>
	<path fill="#FFFFFF" d="M67.547,10.036h-1.854V0.133h1.854V10.036z"/>
	<path fill="#FFFFFF" d="M70.89,1.523h-1.854v-1.39h1.854V1.523z M70.89,10.036h-1.854V3.167h1.854V10.036z"/>
	<path fill="#FFFFFF" d="M76.313,10.036c-0.068-0.157-0.126-0.322-0.175-0.495s-0.084-0.351-0.104-0.533
		c-0.191,0.334-0.441,0.611-0.753,0.832c-0.311,0.22-0.683,0.33-1.114,0.33c-0.719,0-1.273-0.185-1.662-0.555
		c-0.39-0.371-0.584-0.875-0.584-1.514c0-0.673,0.259-1.194,0.777-1.565c0.519-0.37,1.274-0.555,2.27-0.555h1.034V5.434
		c0-0.33-0.087-0.586-0.261-0.768c-0.173-0.182-0.429-0.273-0.768-0.273c-0.301,0-0.532,0.073-0.695,0.219
		c-0.163,0.146-0.244,0.348-0.244,0.606l-1.79-0.006l-0.007-0.038c-0.029-0.58,0.223-1.08,0.756-1.501
		c0.533-0.421,1.233-0.632,2.102-0.632c0.82,0,1.487,0.208,1.999,0.625c0.512,0.417,0.769,1.011,0.769,1.781v2.837
		c0,0.322,0.023,0.624,0.072,0.908s0.126,0.565,0.232,0.844H76.313z M74.618,8.798c0.326,0,0.615-0.081,0.869-0.241
		s0.426-0.347,0.515-0.559V7.027h-1.034c-0.395,0-0.692,0.099-0.896,0.295c-0.203,0.197-0.305,0.435-0.305,0.714
		c0,0.229,0.076,0.413,0.229,0.552S74.355,8.798,74.618,8.798z"/>
	<path fill="#FFFFFF" d="M80.83,3.167l0.082,0.984c0.229-0.351,0.51-0.624,0.844-0.819c0.335-0.195,0.709-0.292,1.124-0.292
		c0.694,0,1.235,0.218,1.625,0.654s0.584,1.119,0.584,2.05v4.291h-1.86V5.741c0-0.462-0.093-0.79-0.279-0.983
		c-0.186-0.193-0.467-0.29-0.844-0.29c-0.245,0-0.466,0.05-0.66,0.149s-0.357,0.241-0.488,0.423v4.994h-1.854V3.167H80.83z"/>
	<path fill="#FFFFFF" d="M89.225,8.741c0.33,0,0.595-0.096,0.794-0.287c0.198-0.191,0.298-0.447,0.298-0.767h1.683l0.019,0.038
		C92.034,8.419,91.773,9,91.233,9.467c-0.539,0.468-1.209,0.702-2.009,0.702c-1.024,0-1.813-0.324-2.368-0.971
		c-0.554-0.647-0.831-1.479-0.831-2.495v-0.19c0-1.011,0.276-1.843,0.828-2.495c0.553-0.652,1.341-0.978,2.364-0.978
		c0.847,0,1.529,0.241,2.048,0.724s0.769,1.117,0.752,1.904l-0.013,0.038h-1.688c0-0.355-0.098-0.65-0.292-0.886
		c-0.194-0.234-0.463-0.352-0.807-0.352c-0.49,0-0.836,0.19-1.037,0.57c-0.201,0.38-0.302,0.871-0.302,1.471V6.7
		c0,0.613,0.101,1.106,0.302,1.48C88.382,8.554,88.729,8.741,89.225,8.741z"/>
	<path fill="#FFFFFF" d="M95.982,10.169c-0.99,0-1.782-0.317-2.375-0.952c-0.592-0.635-0.889-1.441-0.889-2.418V6.544
		c0-1.02,0.281-1.86,0.842-2.52s1.312-0.988,2.256-0.984c0.928,0,1.646,0.279,2.158,0.838c0.513,0.559,0.769,1.314,0.769,2.266
		v1.009h-4.101L94.63,7.192c0.034,0.451,0.186,0.822,0.454,1.113c0.269,0.291,0.634,0.436,1.095,0.436
		c0.41,0,0.751-0.041,1.022-0.124c0.271-0.082,0.566-0.212,0.889-0.39l0.501,1.146c-0.279,0.229-0.646,0.42-1.099,0.57
		C97.04,10.093,96.536,10.169,95.982,10.169z M95.816,4.469c-0.342,0-0.613,0.131-0.812,0.394c-0.198,0.262-0.321,0.607-0.367,1.035
		l0.019,0.032h2.272V5.764c0-0.394-0.092-0.708-0.276-0.943C96.468,4.586,96.189,4.469,95.816,4.469z"/>
	<path fill="#FFFFFF" d="M101.749,10.036h-1.854V8.411h1.854V10.036z"/>
	<path fill="#FFFFFF" d="M106.227,8.741c0.33,0,0.595-0.096,0.794-0.287c0.198-0.191,0.298-0.447,0.298-0.767h1.683l0.019,0.038
		c0.017,0.694-0.244,1.275-0.784,1.742c-0.539,0.468-1.209,0.702-2.009,0.702c-1.024,0-1.813-0.324-2.368-0.971
		c-0.554-0.647-0.831-1.479-0.831-2.495v-0.19c0-1.011,0.276-1.843,0.828-2.495c0.553-0.652,1.341-0.978,2.364-0.978
		c0.847,0,1.529,0.241,2.048,0.724s0.769,1.117,0.752,1.904l-0.013,0.038h-1.688c0-0.355-0.098-0.65-0.292-0.886
		c-0.194-0.234-0.463-0.352-0.807-0.352c-0.49,0-0.836,0.19-1.037,0.57c-0.201,0.38-0.302,0.871-0.302,1.471V6.7
		c0,0.613,0.101,1.106,0.302,1.48C105.384,8.554,105.731,8.741,106.227,8.741z"/>
	<path fill="#FFFFFF" d="M109.658,6.538c0-1.024,0.285-1.863,0.856-2.517c0.571-0.653,1.362-0.98,2.374-0.98
		c1.016,0,1.812,0.326,2.387,0.978s0.863,1.492,0.863,2.52v0.133c0,1.033-0.287,1.874-0.86,2.523
		c-0.573,0.649-1.365,0.974-2.377,0.974c-1.016,0-1.811-0.325-2.384-0.974c-0.573-0.65-0.859-1.491-0.859-2.523V6.538z
		 M111.505,6.668c0,0.625,0.11,1.127,0.33,1.505c0.22,0.378,0.575,0.567,1.066,0.567c0.479,0,0.828-0.19,1.051-0.57
		c0.222-0.38,0.333-0.881,0.333-1.502V6.535c0-0.608-0.112-1.105-0.336-1.49c-0.225-0.384-0.578-0.577-1.061-0.577
		c-0.479,0-0.828,0.193-1.051,0.58c-0.222,0.387-0.333,0.882-0.333,1.486V6.668z"/>
	<path fill="#FFFFFF" d="M118.872,3.167l0.076,0.908c0.22-0.33,0.496-0.585,0.828-0.765c0.332-0.18,0.716-0.27,1.152-0.27
		c0.439,0,0.816,0.097,1.129,0.292c0.313,0.195,0.551,0.489,0.711,0.882c0.212-0.368,0.487-0.656,0.826-0.863
		c0.338-0.208,0.736-0.311,1.193-0.311c0.677,0,1.211,0.234,1.603,0.701c0.392,0.468,0.587,1.18,0.587,2.136v4.158h-1.854V5.862
		c0-0.521-0.085-0.884-0.254-1.088c-0.169-0.203-0.421-0.305-0.756-0.305c-0.262,0-0.489,0.058-0.682,0.175
		s-0.346,0.279-0.461,0.487c0,0.081,0.003,0.149,0.007,0.207c0.004,0.057,0.007,0.115,0.007,0.175v4.523h-1.848V5.862
		c0-0.509-0.085-0.868-0.254-1.078s-0.423-0.315-0.762-0.315c-0.25,0-0.469,0.048-0.657,0.143c-0.188,0.096-0.344,0.23-0.466,0.404
		v5.02h-1.848V3.167H118.872z"/>
	<path fill="#FFFFFF" d="M0,11.305V10.67h127.559v0.635H0z"/>
</g>
</svg>
