<?xml version="1.0" encoding="utf-8"?>
<!-- Generator: Adobe Illustrator 24.0.3, SVG Export Plug-In . SVG Version: 6.00 Build 0)  -->
<svg version="1.1" width="415" height="380" id="Layer_1" xmlns="http://www.w3.org/2000/svg" xmlns:xlink="http://www.w3.org/1999/xlink" x="0px" y="0px"
	 viewBox="0 0 792 612" style="enable-background:new 0 0 792 612;" xml:space="preserve">
<style type="text/css">
	.st0{fill-rule:evenodd;clip-rule:evenodd;fill:#A91C21;}
	.st1{fill-rule:evenodd;clip-rule:evenodd;fill:#FFFFFF;}
	.st2{fill:#FFFFFF;}
</style>
<g>
	<g>
		<g>
			<path class="st0" d="M266.15,175.27c-9.44,0.58-16.14,2.19-20.08,4.79c-4.4,2.94-6.38,7.78-5.87,14.59
				c0.19,2.51,0.79,5.98,1.86,10.41l3.64,15.7c1.28,5.27,2.03,9.66,2.29,13.14c1.2,16.28-5.45,27.09-19.93,32.44
				c15.2,4.4,23.42,14.86,24.64,31.34c0.25,3.4,0.18,7.67-0.26,12.84l-1.4,15.75c-0.4,4.55-0.53,8.08-0.35,10.56
				c0.5,6.81,3.18,11.52,7.99,14.11c4.79,2.58,10.31,3.62,21.51,3.33c0.04,0,0.1-0.04,0.12,0c3.2,5.63,7.19,11.15,12.72,16.4
				l-12.39,0.42c-15.41,0.53-27.47-1.85-36.09-7.18c-8.62-5.29-13.32-13.23-14.1-23.83c-0.33-4.52-0.17-9.65,0.46-15.37l2.39-20.28
				c0.32-3.04,0.37-6.06,0.15-9c-1.02-13.88-10.02-20.56-26.98-19.98l-10.34,0.35l-1.23-16.71l10.34-0.35
				c16.96-0.58,24.93-7.79,23.91-21.64c-0.22-2.94-0.71-5.91-1.48-8.94l-5.36-20.06c-1.47-5.65-2.38-10.74-2.72-15.26
				c-1.61-21.77,13.5-33.24,45.38-34.31l0.6-0.02L266.15,175.27z"/>
		</g>
		<g>
			<path class="st0" d="M525.6,175.27c9.44,0.58,16.14,2.19,20.08,4.79c4.4,2.94,6.38,7.78,5.87,14.59
				c-0.19,2.51-0.79,5.98-1.86,10.41l-3.64,15.7c-1.28,5.27-2.03,9.66-2.29,13.14c-1.2,16.28,5.46,27.09,19.93,32.44
				c-15.2,4.4-23.42,14.86-24.64,31.34c-0.25,3.4-0.18,7.67,0.26,12.84l1.4,15.75c0.4,4.55,0.53,8.08,0.35,10.56
				c-0.5,6.81-3.18,11.52-7.99,14.11c-4.79,2.58-10.31,3.62-21.51,3.33c-0.04,0-0.1-0.04-0.12,0c-3.2,5.63-7.2,11.15-12.72,16.4
				l12.39,0.42c15.41,0.53,27.47-1.85,36.09-7.18c8.62-5.29,13.32-13.23,14.11-23.83c0.33-4.52,0.17-9.65-0.46-15.37l-2.39-20.28
				c-0.32-3.04-0.37-6.06-0.15-9c1.03-13.88,10.02-20.56,26.98-19.98l10.34,0.35l1.23-16.71l-10.34-0.35
				c-16.96-0.58-24.93-7.79-23.91-21.64c0.22-2.94,0.71-5.91,1.48-8.94l5.36-20.06c1.47-5.65,2.38-10.74,2.72-15.26
				c1.61-21.77-13.5-33.24-45.38-34.31l-0.6-0.02L525.6,175.27z"/>
		</g>
		<g>
			<path class="st0" d="M327.6,411.27c-10.83,4.7-38.07,2.3-47.99-0.45l-0.08,0.2c14.56,4.95,30.49,9.03,45.61,12
				C325.28,422.55,327.09,411.48,327.6,411.27z"/>
		</g>
		<g>
			<path class="st0" d="M464.4,411.27c10.83,4.7,38.07,2.3,47.99-0.45l0.08,0.2c-14.56,4.95-30.49,9.03-45.61,12
				C466.72,422.55,464.91,411.48,464.4,411.27z"/>
		</g>
		<g>
			<path class="st0" d="M513.2,415.01c-76.55,28.46-157.85,28.45-234.4,0l-15.63,45.68c41.33,13.79,82.76,22.86,132.83,22.86
				s91.56-9.12,132.89-22.86L513.2,415.01z"/>
		</g>
		<g>
			<path class="st0" d="M585.58,360.71c-36.91,22-77.04,37.73-119.92,46.17l-2.09,0.4c0.35,1.6,25.32,5.64,52.2-1.49l13.49,35.45
				c22.92-6.53,49.28-16.25,72.23-29.88c-0.9,0.53-40.13-9.54-40.13-9.54L585.58,360.71z"/>
		</g>
		<g>
			<path class="st0" d="M206.42,360.71c36.91,22,77.04,37.73,119.92,46.17l2.09,0.4c-0.35,1.6-25.32,5.64-52.2-1.49l-13.49,35.45
				c-22.92-6.53-49.28-16.25-72.23-29.88c0.9,0.53,40.13-9.54,40.13-9.54L206.42,360.71z"/>
		</g>
		<g>
			<g>
				<path class="st0" d="M396.18,128.45H396c-67.94,0-123.15,11.59-123.57,18.37l4.05,163.58c0,70.6,79.57,83.93,119.61,114.86
					C436.13,394.33,515.7,381,515.7,310.4l4.05-163.58C519.33,140.04,464.12,128.45,396.18,128.45z"/>
				<path class="st0" d="M502.17,310.35c-3.74,58.14-72.58,69.9-106.08,96.5c-33.5-26.6-102.34-38.36-106.08-96.5l-2.02-153.99
					c0.28-6.47,69.08-14.56,108.1-14.56c39.57,0,107.82,8.09,108.1,14.56L502.17,310.35z"/>
			</g>
			<path class="st1" d="M396.09,141.8c-39.02,0-107.82,8.09-108.1,14.56l2.02,153.99c3.74,58.14,72.58,69.9,106.08,96.5
				c33.5-26.6,102.34-38.36,106.08-96.5l2.02-153.99C503.91,149.89,435.66,141.8,396.09,141.8z M488.63,306.81
				c-3.26,50.7-63.31,60.96-92.54,84.16c-29.23-23.2-89.27-33.46-92.54-84.16l-1.76-138.13c0.24-5.65,60.26-12.71,94.3-12.71
				c34.52,0,94.05,7.06,94.3,12.71L488.63,306.81z"/>
		</g>
		<g>
			<path class="st0" d="M490.39,168.68l-1.76,138.13c-3.26,50.7-63.31,60.96-92.54,84.16c-29.23-23.2-89.27-33.46-92.54-84.16
				l-1.76-138.13c0.24-5.65,60.26-12.71,94.3-12.71C430.61,155.97,490.14,163.04,490.39,168.68z"/>
		</g>
		<g>
			<polygon class="st1" points="387.68,237.17 398.16,237.17 398.16,258.13 419.12,258.13 419.12,268.61 398.16,268.61 
				398.16,289.57 387.68,289.57 387.68,268.61 366.72,268.61 366.72,258.13 387.68,258.13 			"/>
		</g>
		<g>
			<polygon class="st1" points="450.16,237.17 460.64,237.17 460.64,258.13 481.6,258.13 481.6,268.61 460.64,268.61 460.64,289.57 
				450.16,289.57 450.16,268.61 429.2,268.61 429.2,258.13 450.16,258.13 			"/>
		</g>
	</g>
	<g>
		<g>
			<path class="st2" d="M303.1,455.22c-4.51-1.16-6.76-1.77-11.24-3.04c-1.45,1.8-2.19,2.7-3.66,4.48
				c-2.32-0.67-3.47-1.02-5.78-1.72c7.34-8.15,10.88-12.29,17.68-20.71c2.09,0.58,3.14,0.87,5.24,1.42
				c1.54,10.68,2.46,16.03,4.62,26.73c-2.4-0.56-3.6-0.85-6-1.45C303.6,458.64,303.43,457.5,303.1,455.22z M302.45,450.54
				c-0.55-4.07-0.8-6.11-1.27-10.17c-2.49,3.27-3.75,4.89-6.32,8.12C297.89,449.34,299.41,449.75,302.45,450.54z"/>
			<path class="st2" d="M323.19,439.91c2.15,0.46,3.22,0.68,5.37,1.1c-1.54,7.9-2.32,11.85-3.86,19.76
				c4.93,0.97,7.4,1.41,12.35,2.21c-0.3,1.85-0.44,2.77-0.74,4.62c-7.32-1.17-10.98-1.86-18.26-3.41
				C320.11,454.47,321.14,449.62,323.19,439.91z"/>
			<path class="st2" d="M348.13,444.27c2.16,0.29,3.24,0.43,5.41,0.68c-0.96,7.99-1.45,11.99-2.41,19.98
				c4.96,0.58,7.44,0.82,12.4,1.23c-0.16,1.86-0.24,2.8-0.4,4.66c-7.35-0.6-11.02-0.98-18.36-1.98
				C346.11,459.01,346.79,454.1,348.13,444.27z"/>
			<path class="st2" d="M373.17,446.68c2.17,0.13,3.25,0.19,5.42,0.29c-0.47,9.91-0.7,14.86-1.17,24.76
				c-2.33-0.1-3.49-0.17-5.81-0.31C372.24,461.53,372.55,456.58,373.17,446.68z"/>
			<path class="st2" d="M405.31,466.67c-4.6,0.12-6.9,0.15-11.51,0.14c-0.88,2.12-1.33,3.18-2.24,5.3c-2.39-0.02-3.58-0.04-5.96-0.1
				c4.73-9.81,6.95-14.75,11.08-24.68c2.15-0.01,3.22-0.02,5.36-0.07c4.4,9.83,6.75,14.72,11.75,24.4c-2.44,0.12-3.66,0.17-6.1,0.25
				C406.72,469.82,406.25,468.77,405.31,466.67z M403.4,462.36c-1.64-3.76-2.44-5.65-4-9.42c-1.46,3.81-2.22,5.72-3.76,9.52
				C398.74,462.45,400.3,462.43,403.4,462.36z"/>
			<path class="st2" d="M441.61,444.31c1.34,9.83,2.01,14.74,3.35,24.57c-1.9,0.25-2.85,0.36-4.75,0.59
				c-5.72-5.39-8.49-8.14-13.82-13.73c0.53,6,0.8,9,1.33,15c-2.29,0.19-3.44,0.28-5.73,0.44c-0.73-9.89-1.09-14.84-1.81-24.73
				c1.79-0.13,2.69-0.19,4.48-0.34c5.17,5.62,7.86,8.38,13.42,13.8c-0.72-5.98-1.08-8.97-1.8-14.95
				C438.42,444.72,439.48,444.59,441.61,444.31z"/>
			<path class="st2" d="M452.79,455.24c-1.21-7.38,3.3-13.46,10.5-14.85c3.99-0.77,7.64,0.05,10.47,2.32
				c-1.08,1.63-1.62,2.45-2.73,4.07c-1.99-1.54-4.17-2.1-6.51-1.65c-4.38,0.85-6.93,4.58-6.1,9.18c0.83,4.6,4.67,7.27,9.26,6.38
				c2.45-0.47,4.31-1.87,5.51-4.11c1.73,1.03,2.61,1.53,4.36,2.54c-1.65,3.31-4.9,5.6-9.22,6.43
				C460.64,467.03,454,462.62,452.79,455.24z"/>
			<path class="st2" d="M504.97,451.37c0.55,1.76,0.83,2.64,1.39,4.4c-7.53,2.26-11.32,3.29-18.93,5.16
				c-2.48-9.62-3.72-14.42-6.2-24.04c6.93-1.7,10.38-2.64,17.24-4.69c0.55,1.76,0.83,2.64,1.38,4.4c-4.83,1.44-7.26,2.12-12.13,3.4
				c0.57,2.08,0.86,3.12,1.43,5.2c4.37-1.14,6.55-1.75,10.88-3.03c0.53,1.71,0.79,2.56,1.32,4.27c-4.39,1.29-6.6,1.91-11.02,3.06
				c0.61,2.22,0.91,3.32,1.52,5.54C497.12,453.68,499.74,452.94,504.97,451.37z"/>
		</g>
	</g>
	<g>
		<path class="st2" d="M442.99,206.31c0.29-6.65,1.45-10.34,0.43-11.37c-1.01-1.03-2.31-1.33-7.23-1.77
			c-4.91-0.44-19.22-4.73-44.8-4.14c-25.58,0.59-55.06,9.45-69.95,44.91s2.66,76.84,31.14,91.44c28.54,14.62,63.14,11.46,80.57,7.53
			c2.83-0.64,5.13-2.19,6.65-6.06c3.05-7.78,3.67-17.69,4.05-21.82c0.43-4.73-3.03-3.25-4.05-1.48s-1.49,8.29-9.1,14.43
			c-13.01,10.49-39.53,11.88-57.66-0.59c-23.41-16.1-34.68-40.62-29.05-76.52c5.64-35.9,31.65-42.4,47.69-42.25
			c16.04,0.15,36.25,2.51,43.93,18.02c1.77,3.58,2.19,6.3,2.31,8.97c0.14,3.2,3.28,3.33,3.9,0.89
			C442.59,223.56,442.99,206.31,442.99,206.31z"/>
	</g>
</g>
</svg>
