<?xml version="1.0" encoding="utf-8"?>
<!-- Generator: Adobe Illustrator 16.0.0, SVG Export Plug-In . SVG Version: 6.00 Build 0)  -->
<!DOCTYPE svg PUBLIC "-//W3C//DTD SVG 1.1 Tiny//EN" "http://www.w3.org/Graphics/SVG/1.1/DTD/svg11-tiny.dtd">
<svg version="1.1" baseProfile="tiny" xmlns="http://www.w3.org/2000/svg" xmlns:xlink="http://www.w3.org/1999/xlink" x="0px"
	 y="0px" width="314.111px" height="271.412px" viewBox="0 0 314.111 271.412" xml:space="preserve">
<g id="Layer_1">
</g>
<g id="Layer_1_1_">
	<g>
		<path fill-rule="evenodd" fill="#AA1C21" d="M57.81,35.782c-7.218,0.446-12.333,1.673-15.348,3.66
			c-3.365,2.249-4.873,5.945-4.489,11.148c0.142,1.922,0.604,4.573,1.418,7.953l2.784,11.997c0.979,4.026,1.554,7.385,1.75,10.046
			c0.918,12.445-4.169,20.709-15.233,24.792c11.614,3.367,17.902,11.362,18.831,23.955c0.192,2.601,0.136,5.863-0.195,9.815
			l-1.07,12.039c-0.307,3.478-0.405,6.178-0.265,8.07c0.384,5.202,2.43,8.808,6.108,10.786c3.665,1.971,7.883,2.765,16.438,2.543
			c0.03-0.001,0.076-0.028,0.091-0.002c2.443,4.299,5.499,8.521,9.719,12.535l-9.472,0.324c-11.781,0.402-20.996-1.417-27.588-5.489
			c-6.589-4.042-10.183-10.113-10.781-18.213c-0.255-3.458-0.129-7.374,0.35-11.747l1.824-15.503
			c0.244-2.319,0.281-4.632,0.116-6.879c-0.783-10.612-7.659-15.712-20.624-15.269l-7.904,0.27l-0.943-12.77l7.904-0.27
			c12.964-0.443,19.057-5.957,18.276-16.539c-0.166-2.247-0.541-4.515-1.128-6.837l-4.099-15.329
			c-1.12-4.318-1.822-8.207-2.077-11.665C20.974,32.56,32.524,23.798,56.886,22.975l0.462-0.016L57.81,35.782z"/>
		<path fill-rule="evenodd" fill="#AA1C21" d="M256.111,35.782c7.218,0.446,12.334,1.673,15.348,3.66
			c3.365,2.249,4.873,5.945,4.489,11.148c-0.142,1.922-0.604,4.573-1.418,7.953l-2.784,11.997c-0.979,4.026-1.555,7.385-1.75,10.046
			c-0.919,12.445,4.169,20.709,15.233,24.792c-11.614,3.367-17.902,11.362-18.831,23.955c-0.192,2.601-0.136,5.863,0.195,9.815
			l1.07,12.039c0.307,3.478,0.404,6.178,0.265,8.07c-0.384,5.202-2.43,8.808-6.107,10.786c-3.664,1.971-7.883,2.765-16.438,2.543
			c-0.03-0.001-0.076-0.028-0.091-0.002c-2.444,4.299-5.5,8.521-9.72,12.535l9.473,0.324c11.781,0.402,20.996-1.417,27.588-5.489
			c6.589-4.042,10.183-10.113,10.78-18.213c0.255-3.458,0.129-7.374-0.35-11.747l-1.823-15.503
			c-0.244-2.319-0.281-4.632-0.116-6.879c0.784-10.612,7.659-15.712,20.624-15.269l7.904,0.27l0.942-12.77l-7.904-0.27
			c-12.965-0.443-19.058-5.957-18.275-16.539c0.165-2.247,0.54-4.515,1.127-6.837l4.099-15.329c1.12-4.318,1.822-8.207,2.078-11.665
			c1.228-16.643-10.322-25.404-34.685-26.227l-0.462-0.016L256.111,35.782z"/>
		<path fill-rule="evenodd" fill="#AA1C21" d="M104.776,216.166c-8.281,3.597-29.1,1.76-36.677-0.34l-0.058,0.153
			c11.128,3.781,23.302,6.9,34.858,9.173C102.998,224.788,104.386,216.328,104.776,216.166z"/>
		<path fill-rule="evenodd" fill="#AA1C21" d="M209.334,216.166c8.281,3.597,29.1,1.76,36.677-0.34l0.059,0.153
			c-11.128,3.781-23.303,6.9-34.858,9.173C211.112,224.788,209.725,216.328,209.334,216.166z"/>
		<path fill-rule="evenodd" fill="#AA1C21" d="M246.634,219.022c-58.511,21.755-120.646,21.748-179.157,0l-7.125,36.606
			c63.188,21.076,130.221,21.012,193.409,0L246.634,219.022z"/>
		<path fill-rule="evenodd" fill="#AA1C21" d="M301.96,177.525c-28.21,16.813-58.883,28.842-91.657,35.29l-1.6,0.308
			c0.271,1.227,19.352,4.308,39.896-1.139l5.721,29.393c17.52-4.991,42.253-14.714,59.791-25.135
			c-0.685,0.404-30.676-7.295-30.676-7.295L301.96,177.525z"/>
		<path fill-rule="evenodd" fill="#AA1C21" d="M12.15,177.525c28.21,16.813,58.883,28.842,91.658,35.29l1.599,0.308
			c-0.271,1.227-19.351,4.308-39.896-1.139l-5.722,29.393C42.271,236.386,17.537,226.663,0,216.242
			c0.684,0.404,30.675-7.295,30.675-7.295L12.15,177.525z"/>
		<path fill-rule="evenodd" fill="#AA1C21" d="M62.61,14.04C62.929,8.857,105.13,0,157.053,0h0.143
			c51.923,0,94.125,8.857,94.444,14.04l-3.094,125.027c0,53.966-60.815,64.148-91.421,87.795
			c-30.606-23.646-91.422-33.829-91.422-87.795L62.61,14.04L62.61,14.04z M157.125,11c-29.588,0-81.764,6.139-81.974,11.045
			l1.528,116.776c2.837,44.08,55.037,53,80.446,73.17c25.409-20.17,77.609-29.09,80.446-73.17l1.528-116.776
			C238.889,17.139,187.135,11,157.125,11z"/>
		<path fill-rule="evenodd" fill="#AA1C21" d="M157.125,18.299c-26.807,0-74.079,5.562-74.269,10.007l1.384,108.795
			c2.57,39.938,49.865,48.019,72.885,66.294c23.021-18.275,70.315-26.356,72.884-66.294l1.385-108.795
			C231.203,23.861,184.314,18.299,157.125,18.299z"/>
		<path fill-rule="evenodd" fill="#FFFFFF" d="M186.446,151.922c-10.948,3.933-21.245,5.912-30.892,5.912
			c-16.917,0-30.524-5.063-40.85-15.219c-10.326-10.128-15.503-23.48-15.503-40.001c0-16.747,5.149-30.326,15.418-40.708
			s23.706-15.587,40.284-15.587c9.392,0,19.463,1.584,30.185,4.781v14.993c-10.92-5.036-21.132-7.553-30.638-7.553
			c-10.976,0-20.028,4.045-27.129,12.107c-7.101,8.063-10.637,18.332-10.637,30.835c0,12.589,3.989,22.914,11.995,30.92
			c8.006,8.006,18.303,12.023,30.863,12.023c7.61,0,16.578-1.98,26.903-5.97V151.922z"/>
		<polygon fill-rule="evenodd" fill="#FFFFFF" points="156.809,84.837 164.819,84.837 164.819,100.857 180.839,100.857 
			180.839,108.866 164.819,108.866 164.819,124.887 156.809,124.887 156.809,108.866 140.79,108.866 140.79,100.857 
			156.809,100.857 		"/>
		<polygon fill-rule="evenodd" fill="#FFFFFF" points="201.51,84.837 209.52,84.837 209.52,100.857 225.54,100.857 225.54,108.866 
			209.52,108.866 209.52,124.887 201.51,124.887 201.51,108.866 185.491,108.866 185.491,100.857 201.51,100.857 		"/>
		<path fill-rule="evenodd" fill="#FFFFFF" d="M79.059,244.995l3.674,0.945l-0.379-6.275L79.059,244.995L79.059,244.995z
			 M81.292,234.651l4.703,1.21l1.613,18.339l-4.625-1.19l-0.231-3.35l-5.619-1.446l-1.753,2.84l-4.466-1.149L81.292,234.651
			L81.292,234.651z M96.343,256.059l3.304-17.041l4.385,0.851l-2.588,13.344l8.248,1.599l-0.717,3.697L96.343,256.059
			L96.343,256.059z M117.952,259.702l1.921-17.251l4.438,0.494l-1.504,13.509l8.35,0.93l-0.417,3.742L117.952,259.702
			L117.952,259.702z M139.775,261.696l0.872-17.336l4.436,0.224l-0.872,17.336L139.775,261.696L139.775,261.696z M159.733,255.384
			l3.794-0.039l-1.993-5.963L159.733,255.384L159.733,255.384z M159.21,244.814l4.856-0.05l6.311,17.294l-4.776,0.049l-1.091-3.176
			l-5.802,0.061l-0.957,3.196l-4.611,0.048L159.21,244.814L159.21,244.814z M179.168,261.413l-1.578-17.287l4.784-0.437l3.78,5.381
			c0.618,0.876,1.206,1.744,1.766,2.61c0.56,0.861,1.095,1.718,1.595,2.562c-0.183-1.301-0.339-2.52-0.476-3.658
			c-0.136-1.139-0.244-2.143-0.323-3.013l-0.404-4.424l4.28-0.391l1.578,17.286l-4.781,0.437l-3.927-5.532
			c-0.463-0.653-0.967-1.387-1.514-2.201c-0.551-0.814-1.132-1.694-1.744-2.641c0.188,1.122,0.347,2.162,0.472,3.128
			c0.129,0.967,0.227,1.826,0.296,2.579l0.476,5.209L179.168,261.413L179.168,261.413z M218.748,249.819
			c0.062,2.104-0.472,3.834-1.597,5.193c-1.124,1.358-2.73,2.221-4.82,2.582c-2.501,0.434-4.661-0.033-6.479-1.401
			c-1.816-1.368-2.955-3.389-3.417-6.053c-0.479-2.771-0.082-5.118,1.19-7.038c1.277-1.92,3.224-3.106,5.84-3.56
			c2.074-0.358,3.865-0.105,5.367,0.758c1.501,0.867,2.509,2.228,3.022,4.087l-4.115,0.712c-0.344-0.785-0.832-1.338-1.462-1.653
			c-0.636-0.319-1.408-0.397-2.32-0.239c-1.226,0.212-2.109,0.863-2.654,1.954c-0.543,1.09-0.67,2.477-0.379,4.157
			c0.289,1.67,0.851,2.911,1.686,3.719c0.833,0.807,1.861,1.106,3.082,0.896c0.983-0.171,1.731-0.545,2.239-1.128
			c0.512-0.582,0.76-1.344,0.748-2.281L218.748,249.819L218.748,249.819z M229.221,253.484l-4.319-16.812l12.774-3.282l0.884,3.437
			l-8.473,2.177l0.763,2.97l7.74-1.988l0.865,3.367l-7.74,1.988l0.925,3.602l8.746-2.247l0.883,3.438L229.221,253.484z"/>
	</g>
</g>
</svg>
