<?xml version="1.0" encoding="utf-8"?>
<!-- Generator: Adobe Illustrator 24.0.3, SVG Export Plug-In . SVG Version: 6.00 Build 0)  -->
<svg version="1.1" width="415" height="380" id="Layer_1" xmlns="http://www.w3.org/2000/svg" xmlns:xlink="http://www.w3.org/1999/xlink" x="0px" y="0px"
	 viewBox="190 120 415 380" xml:space="preserve">
<style type="text/css">
	.st0{fill-rule:evenodd;clip-rule:evenodd;fill:#A91C21;}
	.st1{fill-rule:evenodd;clip-rule:evenodd;fill:#FFFFFF;}
	.st2{fill:#FFFFFF;}
</style>
<g>
	<g>
		<g>
			<path class="st0" d="M266.15,175.27c-9.44,0.58-16.14,2.19-20.08,4.79c-4.4,2.94-6.38,7.78-5.87,14.59
				c0.19,2.51,0.79,5.98,1.86,10.41l3.64,15.7c1.28,5.27,2.03,9.66,2.29,13.14c1.2,16.28-5.45,27.09-19.93,32.44
				c15.2,4.4,23.42,14.86,24.64,31.34c0.25,3.4,0.18,7.67-0.26,12.84l-1.4,15.75c-0.4,4.55-0.53,8.08-0.35,10.56
				c0.5,6.81,3.18,11.52,7.99,14.11c4.79,2.58,10.31,3.62,21.51,3.33c0.04,0,0.1-0.04,0.12,0c3.2,5.63,7.19,11.15,12.72,16.4
				l-12.39,0.42c-15.41,0.53-27.47-1.85-36.09-7.18c-8.62-5.29-13.32-13.23-14.1-23.83c-0.33-4.52-0.17-9.65,0.46-15.37l2.39-20.28
				c0.32-3.04,0.37-6.06,0.15-9c-1.02-13.88-10.02-20.56-26.98-19.98l-10.34,0.35l-1.23-16.71l10.34-0.35
				c16.96-0.58,24.93-7.79,23.91-21.64c-0.22-2.94-0.71-5.91-1.48-8.94l-5.36-20.06c-1.47-5.65-2.38-10.74-2.72-15.26
				c-1.61-21.77,13.5-33.24,45.38-34.31l0.6-0.02L266.15,175.27z"/>
		</g>
		<g>
			<path class="st0" d="M525.6,175.27c9.44,0.58,16.14,2.19,20.08,4.79c4.4,2.94,6.38,7.78,5.87,14.59
				c-0.19,2.51-0.79,5.98-1.86,10.41l-3.64,15.7c-1.28,5.27-2.03,9.66-2.29,13.14c-1.2,16.28,5.46,27.09,19.93,32.44
				c-15.2,4.4-23.42,14.86-24.64,31.34c-0.25,3.4-0.18,7.67,0.26,12.84l1.4,15.75c0.4,4.55,0.53,8.08,0.35,10.56
				c-0.5,6.81-3.18,11.52-7.99,14.11c-4.79,2.58-10.31,3.62-21.51,3.33c-0.04,0-0.1-0.04-0.12,0c-3.2,5.63-7.2,11.15-12.72,16.4
				l12.39,0.42c15.41,0.53,27.47-1.85,36.09-7.18c8.62-5.29,13.32-13.23,14.11-23.83c0.33-4.52,0.17-9.65-0.46-15.37l-2.39-20.28
				c-0.32-3.04-0.37-6.06-0.15-9c1.03-13.88,10.02-20.56,26.98-19.98l10.34,0.35l1.23-16.71l-10.34-0.35
				c-16.96-0.58-24.93-7.79-23.91-21.64c0.22-2.94,0.71-5.91,1.48-8.94l5.36-20.06c1.47-5.65,2.38-10.74,2.72-15.26
				c1.61-21.77-13.5-33.24-45.38-34.31l-0.6-0.02L525.6,175.27z"/>
		</g>
		<g>
			<path class="st0" d="M327.6,411.27c-10.83,4.7-38.07,2.3-47.99-0.45l-0.08,0.2c14.56,4.95,30.49,9.03,45.61,12
				C325.28,422.55,327.09,411.48,327.6,411.27z"/>
		</g>
		<g>
			<path class="st0" d="M464.4,411.27c10.83,4.7,38.07,2.3,47.99-0.45l0.08,0.2c-14.56,4.95-30.49,9.03-45.61,12
				C466.72,422.55,464.91,411.48,464.4,411.27z"/>
		</g>
		<g>
			<path class="st0" d="M513.2,415.01c-76.55,28.46-157.85,28.45-234.4,0l-15.63,45.68c41.33,13.79,82.76,22.86,132.83,22.86
				s91.56-9.12,132.89-22.86L513.2,415.01z"/>
		</g>
		<g>
			<path class="st0" d="M585.58,360.71c-36.91,22-77.04,37.73-119.92,46.17l-2.09,0.4c0.35,1.6,25.32,5.64,52.2-1.49l13.49,35.45
				c22.92-6.53,49.28-16.25,72.23-29.88c-0.9,0.53-40.13-9.54-40.13-9.54L585.58,360.71z"/>
		</g>
		<g>
			<path class="st0" d="M206.42,360.71c36.91,22,77.04,37.73,119.92,46.17l2.09,0.4c-0.35,1.6-25.32,5.64-52.2-1.49l-13.49,35.45
				c-22.92-6.53-49.28-16.25-72.23-29.88c0.9,0.53,40.13-9.54,40.13-9.54L206.42,360.71z"/>
		</g>
		<g>
			<path class="st0" d="M396.18,128.45H396c-67.94,0-123.15,11.59-123.57,18.37l4.05,163.58c0,70.6,79.57,83.93,119.61,114.86
				C436.13,394.33,515.7,381,515.7,310.4l4.05-163.58C519.33,140.04,464.12,128.45,396.18,128.45z M501.34,310.07
				c-3.71,57.68-72.01,69.35-105.25,95.74c-33.24-26.39-101.54-38.06-105.25-95.74l-2-152.78c0.28-6.42,68.54-14.45,107.25-14.45
				c39.26,0,106.97,8.03,107.25,14.45L501.34,310.07z"/>
			<path class="st1" d="M396.09,142.84c-38.71,0-106.97,8.03-107.25,14.45l2,152.78c3.71,57.68,72.01,69.35,105.25,95.74
				c33.24-26.39,101.54-38.06,105.25-95.74l2-152.78C503.06,150.87,435.35,142.84,396.09,142.84z M491.45,307.83
				c-3.36,52.25-65.24,62.82-95.36,86.73c-30.12-23.91-91.99-34.48-95.36-86.73l-1.81-142.34c0.25-5.82,62.1-13.1,97.17-13.1
				c35.57,0,96.92,7.28,97.17,13.1L491.45,307.83z"/>
		</g>
		<g>
			<path class="st0" d="M493.26,165.49l-1.81,142.34c-3.36,52.25-65.24,62.82-95.36,86.73c-30.12-23.91-91.99-34.48-95.36-86.73
				l-1.81-142.34c0.25-5.82,62.1-13.1,97.17-13.1C431.66,152.39,493.01,159.67,493.26,165.49z"/>
		</g>
		<g>
			<polygon class="st1" points="387.68,239.45 398.16,239.45 398.16,260.41 419.12,260.41 419.12,270.89 398.16,270.89
				398.16,291.84 387.68,291.84 387.68,270.89 366.72,270.89 366.72,260.41 387.68,260.41 			"/>
		</g>
		<g>
			<polygon class="st1" points="450.16,239.45 460.64,239.45 460.64,260.41 481.6,260.41 481.6,270.89 460.64,270.89 460.64,291.84
				450.16,291.84 450.16,270.89 429.2,270.89 429.2,260.41 450.16,260.41 			"/>
		</g>
	</g>
	<g>
		<g>
			<path class="st2" d="M305.09,456.08c-4.41-1.13-6.61-1.73-10.99-2.98c-1.42,1.76-2.14,2.64-3.58,4.39c-2.27-0.66-3.4-1-5.65-1.68
				c7.18-7.97,10.64-12.02,17.29-20.26c2.05,0.57,3.07,0.85,5.12,1.39c1.5,10.44,2.41,15.68,4.51,26.15
				c-2.35-0.55-3.53-0.84-5.87-1.42C305.58,459.43,305.41,458.31,305.09,456.08z M304.45,451.51c-0.54-3.98-0.78-5.97-1.24-9.95
				c-2.44,3.19-3.67,4.78-6.18,7.94C299.99,450.33,301.48,450.73,304.45,451.51z"/>
			<path class="st2" d="M324.75,441.11c2.1,0.45,3.15,0.66,5.25,1.08c-1.51,7.73-2.27,11.6-3.78,19.33
				c4.82,0.95,7.24,1.38,12.08,2.16c-0.29,1.81-0.43,2.71-0.72,4.52c-7.16-1.15-10.74-1.82-17.86-3.33
				C321.73,455.35,322.73,450.6,324.75,441.11z"/>
			<path class="st2" d="M349.14,445.37c2.11,0.29,3.17,0.42,5.29,0.67c-0.94,7.82-1.41,11.72-2.36,19.54
				c4.85,0.57,7.28,0.8,12.13,1.2c-0.16,1.82-0.24,2.73-0.39,4.56c-7.19-0.59-10.78-0.96-17.96-1.93
				C347.17,459.8,347.82,454.99,349.14,445.37z"/>
			<path class="st2" d="M373.64,447.73c2.12,0.13,3.18,0.18,5.31,0.28c-0.46,9.69-0.69,14.53-1.15,24.22
				c-2.28-0.1-3.41-0.16-5.69-0.3C372.72,462.25,373.03,457.41,373.64,447.73z"/>
			<path class="st2" d="M405.07,467.28c-4.5,0.12-6.75,0.15-11.26,0.14c-0.87,2.08-1.3,3.11-2.19,5.18c-2.33-0.02-3.5-0.04-5.83-0.1
				c4.63-9.59,6.8-14.42,10.84-24.14c2.1-0.01,3.15-0.02,5.25-0.06c4.3,9.62,6.6,14.39,11.49,23.87c-2.39,0.12-3.58,0.16-5.97,0.24
				C406.46,470.37,405.99,469.34,405.07,467.28z M403.21,463.07c-1.61-3.68-2.39-5.52-3.92-9.22c-1.43,3.73-2.17,5.59-3.68,9.31
				C398.65,463.16,400.17,463.14,403.21,463.07z"/>
			<path class="st2" d="M440.58,445.41c1.31,9.61,1.97,14.42,3.28,24.04c-1.86,0.24-2.79,0.36-4.65,0.57
				c-5.6-5.27-8.3-7.96-13.52-13.43c0.52,5.87,0.78,8.8,1.3,14.67c-2.24,0.19-3.36,0.28-5.61,0.43c-0.71-9.68-1.06-14.51-1.77-24.19
				c1.75-0.12,2.63-0.19,4.38-0.33c5.06,5.49,7.69,8.2,13.13,13.5c-0.71-5.85-1.06-8.77-1.76-14.62
				C437.46,445.81,438.5,445.69,440.58,445.41z"/>
			<path class="st2" d="M451.52,456.1c-1.18-7.22,3.23-13.17,10.27-14.53c3.91-0.75,7.47,0.04,10.25,2.27
				c-1.05,1.6-1.59,2.39-2.67,3.98c-1.95-1.5-4.07-2.06-6.37-1.62c-4.29,0.83-6.78,4.48-5.97,8.98c0.81,4.5,4.57,7.11,9.05,6.24
				c2.4-0.46,4.21-1.83,5.39-4.03c1.7,1,2.55,1.5,4.27,2.49c-1.62,3.23-4.79,5.48-9.02,6.29C459.2,467.64,452.7,463.32,451.52,456.1
				z"/>
			<path class="st2" d="M502.56,452.32c0.54,1.72,0.81,2.58,1.36,4.3c-7.36,2.21-11.07,3.22-18.51,5.05
				c-2.42-9.41-3.64-14.11-6.06-23.52c6.78-1.67,10.15-2.58,16.86-4.59c0.54,1.72,0.81,2.58,1.35,4.31
				c-4.73,1.41-7.1,2.08-11.87,3.33c0.56,2.03,0.84,3.05,1.4,5.09c4.27-1.12,6.4-1.71,10.65-2.96c0.52,1.67,0.77,2.51,1.29,4.18
				c-4.3,1.27-6.45,1.87-10.78,3c0.6,2.17,0.89,3.25,1.49,5.42C494.88,454.58,497.45,453.85,502.56,452.32z"/>
		</g>
	</g>
	<g>
		<path class="st2" d="M442.99,208.58c0.29-6.65,1.45-10.34,0.43-11.37c-1.01-1.03-2.31-1.33-7.23-1.77
			c-4.91-0.44-19.22-4.73-44.8-4.14c-25.58,0.59-55.06,9.45-69.95,44.91s2.66,76.84,31.14,91.44c28.54,14.62,63.14,11.46,80.57,7.53
			c2.83-0.64,5.13-2.19,6.65-6.06c3.05-7.78,3.67-17.69,4.05-21.82c0.43-4.73-3.03-3.25-4.05-1.48s-1.49,8.29-9.1,14.43
			c-13.01,10.49-39.53,11.88-57.66-0.59c-23.41-16.1-34.68-40.62-29.05-76.52c5.64-35.9,31.65-42.4,47.69-42.25
			c16.04,0.15,36.25,2.51,43.93,18.02c1.77,3.58,2.19,6.3,2.31,8.97c0.14,3.2,3.28,3.33,3.9,0.89
			C442.59,225.83,442.99,208.58,442.99,208.58z"/>
	</g>
</g>
</svg>
