<?xml version="1.0" encoding="utf-8"?>
<!-- Generator: Adobe Illustrator 16.0.0, SVG Export Plug-In . SVG Version: 6.00 Build 0)  -->
<!DOCTYPE svg PUBLIC "-//W3C//DTD SVG 1.1//EN" "http://www.w3.org/Graphics/SVG/1.1/DTD/svg11.dtd">
<svg version="1.1" id="circles" xmlns="http://www.w3.org/2000/svg" xmlns:xlink="http://www.w3.org/1999/xlink" x="0px" y="0px"
	 width="523.421px" height="500.421px" viewBox="0 0 523.421 500.421" enable-background="new 0 0 523.421 500.421"
	 xml:space="preserve">
<g>
	<path fill="#442814" d="M305.921,127.921c-1.381,0-2.5-1.119-2.5-2.5v-12c0-1.381,1.119-2.5,2.5-2.5s2.5,1.119,2.5,2.5v12
		C308.421,126.802,307.302,127.921,305.921,127.921z"/>
	<path fill="#442814" d="M274.924,137.948c-0.863,0-1.704-0.448-2.167-1.25l-6.348-10.996c-0.69-1.196-0.28-2.725,0.915-3.415
		c1.192-0.69,2.725-0.282,3.415,0.915l6.348,10.996c0.69,1.196,0.28,2.725-0.915,3.415
		C275.778,137.84,275.349,137.948,274.924,137.948z"/>
	<path fill="#442814" d="M253.233,162.216c-0.424,0-0.854-0.108-1.248-0.335l-10.997-6.348c-1.196-0.69-1.605-2.219-0.915-3.415
		c0.689-1.196,2.216-1.608,3.415-0.915l10.997,6.348c1.196,0.69,1.605,2.219,0.915,3.415
		C254.938,161.768,254.097,162.216,253.233,162.216z"/>
	<path fill="#442814" d="M246.421,194.421h-13c-1.381,0-2.5-1.119-2.5-2.5s1.119-2.5,2.5-2.5h13c1.381,0,2.5,1.119,2.5,2.5
		S247.802,194.421,246.421,194.421z"/>
	<path fill="#442814" d="M245.769,231.342c-0.864,0-1.705-0.449-2.167-1.25c-0.69-1.196-0.281-2.725,0.915-3.415l10.997-6.348
		c1.195-0.692,2.725-0.28,3.415,0.915c0.69,1.196,0.281,2.725-0.915,3.415l-10.997,6.348
		C246.623,231.234,246.192,231.342,245.769,231.342z"/>
	<path fill="#442814" d="M274.679,257.676c-0.425,0-0.854-0.107-1.248-0.335c-1.196-0.69-1.605-2.22-0.915-3.415l6.351-10.997
		c0.69-1.196,2.223-1.604,3.415-0.915c1.196,0.69,1.605,2.22,0.915,3.416l-6.351,10.996
		C276.383,257.228,275.542,257.676,274.679,257.676z"/>
	<path fill="#442814" d="M311.921,265.921c-1.381,0-2.5-1.119-2.5-2.5v-13c0-1.381,1.119-2.5,2.5-2.5s2.5,1.119,2.5,2.5v13
		C314.421,264.802,313.302,265.921,311.921,265.921z"/>
	<path fill="#442814" d="M350.158,254.15c-0.863,0-1.704-0.448-2.167-1.25l-6.348-10.997c-0.69-1.196-0.28-2.725,0.915-3.415
		c1.193-0.69,2.725-0.281,3.415,0.915l6.348,10.997c0.69,1.196,0.28,2.725-0.915,3.415
		C351.013,254.042,350.583,254.15,350.158,254.15z"/>
	<path fill="#442814" d="M376.488,225.233c-0.425,0-0.854-0.108-1.248-0.335l-10.995-6.349c-1.195-0.69-1.605-2.219-0.915-3.415
		c0.69-1.197,2.222-1.604,3.415-0.915l10.995,6.349c1.195,0.69,1.605,2.219,0.915,3.415
		C378.192,224.785,377.352,225.233,376.488,225.233z"/>
	<path fill="#442814" d="M384.421,188.421h-12c-1.381,0-2.5-1.119-2.5-2.5s1.119-2.5,2.5-2.5h12c1.381,0,2.5,1.119,2.5,2.5
		S385.802,188.421,384.421,188.421z"/>
	<path fill="#442814" d="M361.972,156.108c-0.863,0-1.704-0.448-2.167-1.25c-0.69-1.195-0.281-2.725,0.915-3.415l10.994-6.349
		c1.192-0.688,2.725-0.282,3.415,0.915c0.69,1.195,0.281,2.725-0.915,3.415l-10.994,6.349
		C362.826,156,362.396,156.108,361.972,156.108z"/>
	<path fill="#442814" d="M337.698,134.42c-0.425,0-0.854-0.108-1.248-0.335c-1.195-0.69-1.605-2.219-0.915-3.415l6.348-10.996
		c0.69-1.196,2.221-1.605,3.415-0.915c1.195,0.69,1.605,2.219,0.915,3.415l-6.348,10.996
		C339.402,133.972,338.562,134.42,337.698,134.42z"/>
</g>
<g>
	<polyline fill="#C18650" points="67.641,389 173.637,281.042 299.084,403.66 145.687,403.403 133.478,408.421 46.421,408.421 	"/>
	<path fill="#442814" d="M134.07,411.421H46.421c-1.657,0-3-1.343-3-3s1.343-3,3-3h86.464l12.212-5.02l146.613,0.245L173.68,285.28
		L69.781,391.101c-1.161,1.184-3.06,1.2-4.242,0.039s-1.2-3.061-0.039-4.242l108.093-110.093l132.865,129.867l-160.181-0.269
		L134.07,411.421z"/>
</g>
<g>
	<polyline fill="#C18650" points="106.894,407.314 285.229,218.63 466.169,407.588 	"/>
	<path fill="#442814" d="M466.169,410.588c-0.789,0-1.577-0.31-2.167-0.925L285.244,222.983l-176.17,186.392
		c-1.138,1.205-3.037,1.258-4.241,0.12c-1.204-1.139-1.258-3.037-0.12-4.241l180.501-190.976l183.121,191.235
		c1.146,1.197,1.104,3.096-0.092,4.242C467.662,410.312,466.915,410.588,466.169,410.588z"/>
</g>
<g>
	<polygon fill="#FFFFFF" points="334.741,271.105 326.934,276.983 299.606,261.572 282.689,278.59 269.677,261.572 227.524,279.483 
		285.229,218.63 	"/>
	<path fill="#442814" d="M215.422,287.884l69.813-73.62l53.989,57.22l-12.055,9.075l-27.047-15.253l-17.729,17.836l-13.687-17.899
		L215.422,287.884z M270.646,257.9l12.34,16.138l16.104-16.201l27.607,15.569l3.561-2.681l-45.034-47.729l-45.598,48.085
		L270.646,257.9z"/>
</g>
<path fill="#442814" d="M520.421,411.421h-116c-1.657,0-3-1.343-3-3s1.343-3,3-3h116c1.657,0,3,1.343,3,3
	S522.078,411.421,520.421,411.421z M364.421,411.421h-150c-1.657,0-3-1.343-3-3s1.343-3,3-3h150c1.657,0,3,1.343,3,3
	S366.078,411.421,364.421,411.421z M174.421,411.421h-150c-1.657,0-3-1.343-3-3s1.343-3,3-3h150c1.657,0,3,1.343,3,3
	S176.078,411.421,174.421,411.421z"/>
<g>
	<polyline fill="#A91F23" points="281.421,165.421 345.15,165.421 325.632,180.921 345.15,196.421 281.421,196.421 	"/>
	<polygon fill="#442814" points="353.752,199.421 281.421,199.421 281.421,193.421 336.549,193.421 320.808,180.921 
		336.549,168.421 281.421,168.421 281.421,162.421 353.752,162.421 330.456,180.921 	"/>
</g>
<g>
	<line fill="#A91F23" x1="284.421" y1="165.421" x2="284.421" y2="219.421"/>
	<rect x="281.421" y="165.421" fill="#442814" width="6" height="54"/>
</g>
<g>
	<path fill="#FFFFFF" d="M189.553,203.655c-0.297,0-0.588,0.025-0.882,0.044c1.167-2.655,1.824-5.583,1.824-8.669
		c0-11.924-9.667-21.59-21.591-21.59c-5.79,0-11.035,2.292-14.911,6.001c-3.483-5.017-9.277-8.309-15.847-8.309
		c-9.172,0-16.834,6.411-18.788,14.994c-2.312-1.223-4.943-1.921-7.74-1.921c-9.164,0-16.593,7.429-16.593,16.592
		c0,0.985,0.103,1.943,0.267,2.88c-6.981,0.24-12.57,6.323-12.57,13.36c0,7.191,5.828,13.384,13.02,13.384c7.039,0,86.619,0,93.81,0
		c7.19,0,13.019-6.193,13.019-13.384C202.572,209.848,196.744,203.655,189.553,203.655z"/>
	<path fill="#442814" d="M189.553,233.421h-93.81c-8.684,0-16.02-7.503-16.02-16.384c0-7.619,5.289-14.179,12.306-15.918
		c-0.002-0.107-0.003-0.215-0.003-0.322c0-10.803,8.789-19.592,19.593-19.592c1.985,0,3.964,0.307,5.856,0.9
		c3.332-8.376,11.399-13.972,20.671-13.972c6.197,0,12.07,2.59,16.255,7.055c4.195-3.081,9.239-4.748,14.502-4.748
		c13.56,0,24.591,11.031,24.591,24.59c0,2.029-0.247,4.025-0.736,5.97c7.208,1.568,12.812,8.276,12.812,16.038
		C205.572,225.918,198.236,233.421,189.553,233.421z M111.62,187.206c-7.495,0-13.593,6.097-13.593,13.592
		c0,0.739,0.073,1.511,0.222,2.361l0.597,3.399l-3.449,0.118c-5.334,0.184-9.673,4.832-9.673,10.362
		c0,5.628,4.588,10.384,10.02,10.384h93.81c5.431,0,10.019-4.755,10.019-10.384c0-5.628-4.588-10.383-10.019-10.383
		c-0.173,0-0.344,0.014-0.515,0.026l-5.104,0.34l1.99-4.529c1.042-2.372,1.571-4.882,1.571-7.462c0-10.25-8.34-18.59-18.591-18.59
		c-4.795,0-9.354,1.835-12.836,5.168l-2.536,2.428l-2.002-2.884c-3.052-4.396-8.054-7.02-13.382-7.02
		c-7.643,0-14.166,5.206-15.862,12.66l-0.869,3.815l-3.459-1.83C115.983,187.735,113.851,187.206,111.62,187.206z"/>
</g>
<polygon opacity="0.2" points="106.894,407.314 283.991,218.63 220.229,408.616 "/>
<polygon opacity="0.2" points="48.336,407.421 173.496,281.199 120.025,407.421 "/>
<g>
	<line fill="#C18650" x1="331.734" y1="313.337" x2="343.219" y2="332.661"/>
	<path fill="#442814" d="M343.222,335.661c-1.023,0-2.021-0.523-2.582-1.467l-11.484-19.323c-0.847-1.425-0.378-3.266,1.046-4.112
		c1.427-0.844,3.265-0.378,4.112,1.046l11.484,19.323c0.847,1.425,0.378,3.266-1.046,4.112
		C344.271,335.525,343.743,335.661,343.222,335.661z"/>
</g>
<g>
	<line fill="#C18650" x1="282.284" y1="323.205" x2="281.301" y2="350.146"/>
	<path fill="#442814" d="M281.303,353.146c-0.037,0-0.074-0.001-0.111-0.002c-1.656-0.061-2.949-1.452-2.889-3.107l0.983-26.941
		c0.061-1.655,1.457-2.925,3.107-2.889c1.656,0.061,2.949,1.452,2.889,3.107l-0.983,26.941
		C284.239,351.874,282.909,353.146,281.303,353.146z"/>
</g>
<path fill="#442814" d="M259.671,500.421c-25.136,0-49.891-3.892-73.578-11.566c-1.576-0.51-2.44-2.202-1.929-3.778
	c0.511-1.575,2.201-2.439,3.779-1.929c23.089,7.48,47.222,11.273,71.729,11.273c24.585,0,48.794-3.817,71.952-11.347
	c1.576-0.513,3.268,0.349,3.78,1.925s-0.35,3.269-1.925,3.78C309.72,496.504,284.887,500.421,259.671,500.421z M69.25,403.51
	c-0.926,0-1.839-0.427-2.427-1.232C37.01,361.384,21.224,313.062,21.171,262.3c-0.002-1.656,1.34-2.879,2.997-2.879
	c0.001,0,0.002,0,0.003,0c1.656,0,2.998,1.217,3,2.873c0.052,49.484,15.44,96.648,44.5,136.51c0.976,1.34,0.682,3.186-0.657,4.161
	C70.481,403.354,69.862,403.51,69.25,403.51z M450.236,403.31c-0.611,0-1.229-0.187-1.762-0.574c-1.34-0.975-1.511-2.851-0.536-4.19
	c29.019-39.892,44.482-87.135,44.482-136.624v-0.506c0-1.657,1.343-3,3-3s3,1.343,3,3v0.488c0,50.783-15.86,99.248-45.631,140.171
	C452.203,402.882,451.164,403.31,450.236,403.31z M68.951,126.736c-0.611,0-1.228-0.186-1.76-0.572
	c-1.341-0.973-1.639-2.849-0.666-4.19c29.42-40.534,71.715-71.372,119.095-86.833c1.575-0.515,3.269,0.346,3.783,1.921
	s-0.346,3.269-1.921,3.783c-46.186,15.071-87.418,45.135-116.101,84.653C70.794,126.307,69.879,126.736,68.951,126.736z
	 M449.948,126.129c-0.926,0-1.838-0.426-2.425-1.23c-28.808-39.426-70.132-69.357-116.361-84.28c-1.576-0.509-2.442-2.2-1.933-3.776
	c0.508-1.577,2.197-2.441,3.776-1.934c47.424,15.309,89.814,46.011,119.361,86.45c0.978,1.338,0.686,3.215-0.652,4.192
	C451.182,125.941,450.562,126.129,449.948,126.129z"/>
<path opacity="0.3" fill="#EFCFC2" d="M259.671,484.921c-1.982,0-4-0.026-5.995-0.079c-1.932-0.051-3.458-1.659-3.407-3.592
	c0.052-1.932,1.698-3.428,3.591-3.406c3.968,0.106,7.965,0.102,11.878-0.007c1.93-0.067,3.542,1.47,3.596,3.402
	c0.053,1.933-1.47,3.542-3.402,3.596C263.862,484.892,261.755,484.921,259.671,484.921z M241.726,484.197
	c-0.095,0-0.191-0.004-0.287-0.012c-4.065-0.33-8.165-0.775-12.185-1.325c-1.915-0.262-3.255-2.026-2.994-3.941
	c0.262-1.915,2.025-3.247,3.942-2.994c3.894,0.532,7.865,0.964,11.803,1.284c1.927,0.156,3.362,1.845,3.206,3.771
	C245.062,482.81,243.53,484.197,241.726,484.197z M277.879,484.175c-1.803,0-3.334-1.384-3.484-3.213
	c-0.158-1.926,1.274-3.616,3.201-3.775c3.937-0.324,7.907-0.761,11.801-1.298c1.907-0.262,3.682,1.073,3.945,2.988
	c0.265,1.915-1.073,3.682-2.988,3.945c-4.021,0.555-8.119,1.006-12.184,1.341C278.072,484.171,277.976,484.175,277.879,484.175z
	 M217.828,480.928c-0.221,0-0.444-0.021-0.669-0.064c-4.002-0.775-8.028-1.671-11.967-2.662c-1.875-0.473-3.012-2.375-2.54-4.249
	c0.473-1.874,2.377-3.005,4.249-2.54c3.814,0.961,7.713,1.828,11.588,2.578c1.898,0.368,3.139,2.204,2.771,4.102
	C220.937,479.765,219.471,480.928,217.828,480.928z M301.772,480.878c-1.641,0-3.105-1.16-3.432-2.831
	c-0.369-1.897,0.869-3.735,2.766-4.105c3.87-0.754,7.769-1.626,11.586-2.592c1.874-0.47,3.777,0.661,4.252,2.535
	c0.474,1.874-0.661,3.777-2.535,4.252c-3.942,0.997-7.968,1.896-11.963,2.676C302.22,480.857,301.994,480.878,301.772,480.878z
	 M194.433,475.041c-0.345,0-0.696-0.052-1.042-0.159c-3.896-1.215-7.807-2.554-11.623-3.98c-1.811-0.677-2.729-2.693-2.053-4.504
	s2.692-2.731,4.504-2.053c3.695,1.381,7.481,2.678,11.255,3.854c1.845,0.575,2.875,2.538,2.3,4.384
	C197.307,474.08,195.924,475.041,194.433,475.041z M325.161,474.962c-1.49,0-2.871-0.959-3.339-2.455
	c-0.578-1.845,0.449-3.809,2.294-4.386c3.758-1.177,7.535-2.475,11.228-3.859c1.808-0.678,3.826,0.239,4.506,2.049
	c0.679,1.81-0.238,3.827-2.049,4.506c-3.812,1.43-7.713,2.771-11.593,3.984C325.859,474.911,325.507,474.962,325.161,474.962z
	 M171.791,466.579c-0.469,0-0.946-0.095-1.404-0.296c-3.733-1.637-7.469-3.4-11.104-5.242c-1.724-0.874-2.414-2.979-1.54-4.704
	c0.874-1.724,2.978-2.414,4.704-1.54c3.519,1.783,7.136,3.491,10.751,5.076c1.77,0.776,2.576,2.841,1.8,4.61
	C174.423,465.796,173.138,466.579,171.791,466.579z M347.727,466.5c-1.346,0-2.629-0.781-3.206-2.092
	c-0.778-1.77,0.025-3.835,1.795-4.613c3.606-1.586,7.212-3.291,10.715-5.068c1.726-0.875,3.83-0.185,4.705,1.537
	c0.875,1.725,0.187,3.831-1.537,4.705c-3.618,1.836-7.341,3.597-11.064,5.234C348.675,466.405,348.197,466.5,347.727,466.5z
	 M150.24,455.666c-0.594,0-1.196-0.152-1.748-0.471c-3.517-2.032-7.032-4.196-10.45-6.43c-1.618-1.058-2.072-3.227-1.015-4.845
	c1.057-1.618,3.226-2.072,4.845-1.015c3.311,2.164,6.716,4.26,10.123,6.229c1.673,0.968,2.246,3.108,1.279,4.782
	C152.625,455.038,151.449,455.666,150.24,455.666z M369.208,455.604c-1.208,0-2.383-0.627-3.032-1.747
	c-0.968-1.673-0.397-3.814,1.275-4.783c3.409-1.974,6.808-4.067,10.101-6.223c1.615-1.057,3.786-0.606,4.846,1.012
	c1.059,1.617,0.605,3.787-1.012,4.846c-3.399,2.225-6.908,4.386-10.427,6.424C370.406,455.452,369.804,455.604,369.208,455.604z
	 M130.034,442.451c-0.72,0-1.446-0.222-2.071-0.681c-3.279-2.412-6.534-4.947-9.675-7.535c-1.492-1.229-1.706-3.435-0.477-4.927
	c1.229-1.49,3.435-1.705,4.927-0.476c3.043,2.506,6.197,4.962,9.374,7.299c1.557,1.146,1.891,3.336,0.745,4.894
	C132.17,441.958,131.109,442.451,130.034,442.451z M389.375,442.4c-1.075,0-2.136-0.493-2.822-1.426
	c-1.146-1.557-0.812-3.747,0.745-4.893c3.164-2.329,6.313-4.784,9.36-7.296c1.493-1.229,3.697-1.016,4.928,0.475
	c1.229,1.492,1.017,3.698-0.475,4.928c-3.146,2.593-6.397,5.126-9.665,7.531C390.822,442.178,390.096,442.4,389.375,442.4z
	 M111.41,427.106c-0.847,0-1.697-0.306-2.369-0.925c-2.995-2.757-5.953-5.631-8.79-8.544c-1.349-1.385-1.319-3.602,0.065-4.95
	c1.384-1.349,3.601-1.318,4.949,0.065c2.749,2.822,5.613,5.607,8.515,8.278c1.422,1.309,1.514,3.523,0.205,4.945
	C113.296,426.726,112.354,427.106,111.41,427.106z M407.98,427.061c-0.944,0-1.886-0.38-2.576-1.13
	c-1.31-1.422-1.218-3.636,0.205-4.945c2.893-2.662,5.756-5.447,8.511-8.278c1.348-1.384,3.563-1.414,4.949-0.066
	c1.385,1.348,1.415,3.563,0.066,4.949c-2.844,2.922-5.8,5.797-8.786,8.546C409.678,426.755,408.827,427.061,407.98,427.061z
	 M94.583,409.824c-0.976,0-1.947-0.406-2.639-1.199c-2.671-3.062-5.295-6.24-7.799-9.449c-1.189-1.523-0.918-3.724,0.606-4.912
	c1.524-1.189,3.722-0.919,4.913,0.605c2.426,3.108,4.968,6.188,7.555,9.154c1.271,1.456,1.12,3.667-0.336,4.938
	C96.219,409.54,95.399,409.824,94.583,409.824z M424.805,409.773c-0.816,0-1.636-0.283-2.299-0.861
	c-1.457-1.271-1.608-3.481-0.339-4.938c2.595-2.976,5.138-6.06,7.558-9.164c1.19-1.526,3.391-1.796,4.912-0.609
	c1.525,1.188,1.798,3.388,0.609,4.912c-2.499,3.206-5.124,6.39-7.802,9.461C426.752,409.367,425.78,409.773,424.805,409.773z
	 M79.753,390.813c-1.107,0-2.196-0.523-2.876-1.502c-2.321-3.337-4.581-6.783-6.715-10.244c-1.015-1.645-0.503-3.801,1.142-4.815
	c1.646-1.018,3.801-0.504,4.816,1.142c2.067,3.351,4.255,6.689,6.503,9.922c1.104,1.586,0.712,3.768-0.875,4.871
	C81.14,390.61,80.443,390.813,79.753,390.813z M439.641,390.737c-0.689,0-1.386-0.203-1.995-0.626
	c-1.587-1.104-1.979-3.284-0.876-4.872c2.247-3.232,4.438-6.577,6.51-9.94c1.015-1.646,3.173-2.155,4.815-1.144
	c1.646,1.014,2.158,3.17,1.144,4.815c-2.139,3.472-4.4,6.926-6.721,10.265C441.838,390.212,440.748,390.737,439.641,390.737z
	 M67.102,370.303c-1.242,0-2.444-0.662-3.079-1.83c-1.938-3.568-3.804-7.241-5.544-10.915c-0.828-1.747-0.082-3.834,1.665-4.661
	c1.748-0.827,3.835-0.082,4.662,1.665c1.685,3.558,3.492,7.114,5.369,10.569c0.922,1.699,0.293,3.823-1.405,4.746
	C68.239,370.167,67.667,370.303,67.102,370.303z M452.306,370.182c-0.563,0-1.135-0.137-1.665-0.424
	c-1.699-0.922-2.33-3.046-1.409-4.745c1.883-3.472,3.691-7.04,5.377-10.604c0.826-1.748,2.914-2.494,4.66-1.668
	c1.747,0.826,2.494,2.912,1.668,4.66c-1.739,3.681-3.607,7.364-5.551,10.948C454.751,369.518,453.548,370.182,452.306,370.182z
	 M56.79,348.538c-1.381,0-2.689-0.822-3.243-2.18c-1.537-3.769-2.987-7.631-4.311-11.478c-0.629-1.827,0.343-3.819,2.17-4.448
	c1.831-0.631,3.819,0.343,4.449,2.171c1.282,3.724,2.686,7.463,4.174,11.112c0.73,1.79-0.129,3.832-1.919,4.562
	C57.677,348.454,57.23,348.538,56.79,348.538z M462.631,348.341c-0.439,0-0.886-0.083-1.317-0.259
	c-1.791-0.729-2.652-2.771-1.924-4.561c1.484-3.649,2.888-7.397,4.172-11.14c0.627-1.829,2.62-2.801,4.446-2.175
	c1.828,0.627,2.802,2.618,2.175,4.446c-1.326,3.865-2.775,7.735-4.309,11.505C465.321,347.518,464.012,348.341,462.631,348.341z
	 M48.935,325.729c-1.526,0-2.929-1.006-3.366-2.547c-1.108-3.913-2.122-7.911-3.012-11.884c-0.423-1.886,0.763-3.758,2.649-4.181
	c1.886-0.419,3.758,0.763,4.181,2.649c0.863,3.847,1.844,7.718,2.917,11.507c0.527,1.86-0.554,3.795-2.414,4.321
	C49.572,325.686,49.251,325.729,48.935,325.729z M470.471,325.502c-0.314,0-0.634-0.043-0.952-0.132
	c-1.86-0.525-2.943-2.458-2.419-4.319c1.071-3.798,2.049-7.671,2.905-11.511c0.42-1.886,2.285-3.079,4.178-2.654
	c1.887,0.421,3.075,2.291,2.654,4.178c-0.885,3.966-1.894,7.966-3,11.888C473.402,324.494,471.998,325.502,470.471,325.502z
	 M43.656,302.193c-1.68,0-3.163-1.214-3.448-2.926c-0.669-4.013-1.235-8.098-1.682-12.142c-0.212-1.922,1.173-3.651,3.095-3.863
	c1.919-0.211,3.651,1.173,3.863,3.094c0.433,3.917,0.98,7.874,1.628,11.761c0.318,1.906-0.97,3.71-2.877,4.027
	C44.041,302.176,43.847,302.193,43.656,302.193z M475.724,301.959c-0.189,0-0.382-0.016-0.576-0.048
	c-1.906-0.316-3.196-2.118-2.881-4.025c0.643-3.878,1.186-7.835,1.615-11.762c0.21-1.922,1.925-3.305,3.86-3.099
	c1.921,0.211,3.309,1.938,3.099,3.86c-0.443,4.054-1.005,8.14-1.668,12.145C478.889,300.744,477.405,301.959,475.724,301.959z
	 M41.008,278.218c-1.845,0-3.389-1.442-3.492-3.307c-0.225-4.059-0.341-8.047-0.345-12.121c-0.002-1.932,1.563-3.369,3.497-3.369
	c0.001,0,0.002,0,0.003,0c1.932,0,3.498,1.432,3.5,3.363c0.004,3.945,0.116,7.874,0.334,11.807c0.107,1.93-1.371,3.548-3.301,3.655
	C41.139,278.25,41.073,278.218,41.008,278.218z M478.348,277.981c-0.063,0-0.128-0.002-0.192-0.005
	c-1.931-0.105-3.285-1.755-3.181-3.685c0.213-3.923,0.446-7.916,0.446-11.87v-0.467c0-1.933,1.567-3.5,3.5-3.5s3.5,1.567,3.5,3.5
	v0.445c0,4.102-0.236,8.223-0.456,12.271C481.863,276.537,480.193,277.981,478.348,277.981z M40.988,254.096
	c-0.062,0-0.125-0.002-0.189-0.005c-1.93-0.103-3.412-1.751-3.309-3.681c0.216-4.067,0.548-8.178,0.985-12.217
	c0.208-1.921,1.929-3.313,3.856-3.103c1.921,0.208,3.311,1.935,3.103,3.856c-0.423,3.913-0.745,7.894-0.954,11.834
	C44.38,252.649,42.835,254.096,40.988,254.096z M478.315,253.393c-1.843,0-3.386-1.439-3.491-3.302
	c-0.224-3.946-0.558-7.927-0.993-11.833c-0.214-1.921,1.17-3.652,3.091-3.866c1.93-0.213,3.652,1.17,3.866,3.091
	c0.449,4.031,0.794,8.14,1.024,12.211c0.109,1.931-1.366,3.583-3.296,3.692C478.449,253.391,478.382,253.393,478.315,253.393z
	 M43.588,230.117c-0.189,0-0.38-0.015-0.572-0.047c-1.908-0.314-3.2-2.114-2.886-4.022c0.661-4.017,1.442-8.067,2.323-12.037
	c0.419-1.888,2.289-3.078,4.175-2.659c1.887,0.419,3.077,2.288,2.659,4.175c-0.853,3.844-1.61,7.766-2.25,11.657
	C46.755,228.899,45.271,230.117,43.588,230.117z M475.639,229.423c-1.679,0-3.161-1.211-3.448-2.922
	c-0.649-3.877-1.419-7.796-2.286-11.648c-0.425-1.886,0.76-3.759,2.646-4.184c1.893-0.421,3.759,0.761,4.183,2.646
	c0.896,3.978,1.69,8.025,2.362,12.029c0.319,1.906-0.967,3.711-2.873,4.03C476.025,229.407,475.831,229.423,475.639,229.423z
	 M48.811,206.569c-0.313,0-0.632-0.042-0.948-0.131c-1.861-0.523-2.946-2.455-2.423-4.316c1.1-3.917,2.326-7.855,3.642-11.707
	c0.625-1.829,2.612-2.803,4.444-2.18c1.829,0.625,2.805,2.615,2.18,4.444c-1.275,3.729-2.461,7.542-3.526,11.334
	C51.745,205.559,50.34,206.569,48.811,206.569z M470.339,205.892c-1.524,0-2.927-1.004-3.364-2.544
	c-1.078-3.791-2.276-7.6-3.563-11.323c-0.631-1.827,0.339-3.82,2.166-4.451c1.825-0.632,3.82,0.338,4.451,2.165
	c1.328,3.845,2.566,7.78,3.679,11.695c0.529,1.859-0.55,3.795-2.409,4.324C470.979,205.849,470.656,205.892,470.339,205.892z
	 M56.619,183.721c-0.438,0-0.882-0.083-1.313-0.257c-1.792-0.726-2.655-2.767-1.929-4.558c1.529-3.773,3.186-7.558,4.925-11.249
	c0.824-1.749,2.908-2.498,4.658-1.674c1.749,0.824,2.498,2.91,1.674,4.658c-1.685,3.574-3.289,7.239-4.77,10.893
	C59.313,182.896,58.002,183.721,56.619,183.721z M462.466,183.092c-1.379,0-2.687-0.821-3.24-2.176
	c-1.487-3.637-3.099-7.284-4.787-10.841c-0.83-1.746-0.086-3.834,1.66-4.663c1.742-0.829,3.833-0.087,4.662,1.66
	c1.745,3.673,3.408,7.439,4.943,11.195c0.732,1.789-0.125,3.833-1.914,4.564C463.356,183.008,462.907,183.092,462.466,183.092z
	 M66.918,161.868c-0.562,0-1.133-0.136-1.663-0.422c-1.7-0.92-2.333-3.044-1.413-4.744c1.936-3.579,4-7.155,6.135-10.629
	c1.012-1.647,3.167-2.161,4.814-1.149c1.647,1.012,2.162,3.167,1.149,4.814c-2.068,3.364-4.067,6.828-5.942,10.294
	C69.367,161.204,68.162,161.868,66.918,161.868z M452.135,161.337c-1.24,0-2.441-0.661-3.076-1.827
	c-1.886-3.462-3.891-6.912-5.957-10.255c-1.017-1.644-0.509-3.801,1.136-4.817c1.642-1.017,3.8-0.509,4.817,1.136
	c2.135,3.452,4.204,7.014,6.15,10.589c0.925,1.697,0.298,3.823-1.399,4.748C453.274,161.2,452.7,161.337,452.135,161.337z
	 M79.561,141.297c-0.688,0-1.383-0.202-1.991-0.624c-1.588-1.101-1.983-3.282-0.882-4.871c2.315-3.339,4.758-6.665,7.262-9.884
	c1.186-1.525,3.385-1.801,4.912-0.614c1.526,1.187,1.801,3.386,0.614,4.912c-2.426,3.119-4.792,6.34-7.035,9.575
	C81.761,140.771,80.67,141.297,79.561,141.297z M439.461,140.84c-1.106,0-2.194-0.523-2.875-1.5
	c-2.245-3.223-4.617-6.435-7.049-9.545c-1.191-1.522-0.922-3.722,0.601-4.913c1.521-1.189,3.721-0.922,4.913,0.601
	c2.512,3.211,4.96,6.527,7.279,9.856c1.104,1.586,0.715,3.768-0.871,4.873C440.85,140.636,440.151,140.84,439.461,140.84z
	 M94.381,122.247c-0.815,0-1.633-0.283-2.296-0.859c-1.458-1.269-1.612-3.479-0.343-4.938c2.674-3.073,5.465-6.109,8.298-9.026
	c1.346-1.386,3.562-1.419,4.949-0.072c1.387,1.347,1.419,3.562,0.072,4.949c-2.744,2.825-5.448,5.767-8.038,8.744
	C96.331,121.839,95.359,122.247,94.381,122.247z M424.608,121.843c-0.975,0-1.944-0.405-2.636-1.197
	c-2.589-2.961-5.3-5.896-8.057-8.721c-1.35-1.383-1.323-3.599,0.061-4.949c1.384-1.349,3.6-1.324,4.949,0.061
	c2.846,2.916,5.645,5.945,8.316,9.003c1.272,1.455,1.124,3.667-0.331,4.938C426.247,121.559,425.426,121.843,424.608,121.843z
	 M111.192,104.939c-0.943,0-1.883-0.379-2.573-1.126c-1.311-1.42-1.222-3.635,0.199-4.946c2.986-2.755,6.091-5.468,9.23-8.062
	c1.489-1.232,3.695-1.021,4.928,0.469c1.231,1.49,1.021,3.696-0.469,4.927c-3.041,2.513-6.049,5.141-8.942,7.81
	C112.892,104.632,112.041,104.939,111.192,104.939z M407.759,104.579c-0.846,0-1.694-0.305-2.366-0.922
	c-2.903-2.666-5.92-5.287-8.966-7.792c-1.493-1.228-1.709-3.433-0.481-4.926c1.229-1.493,3.434-1.708,4.927-0.481
	c3.145,2.585,6.259,5.291,9.255,8.042c1.424,1.308,1.519,3.521,0.211,4.945C409.647,104.198,408.705,104.579,407.759,104.579z
	 M129.785,89.581c-1.074,0-2.133-0.493-2.819-1.423c-1.147-1.555-0.817-3.747,0.739-4.894c3.273-2.415,6.656-4.77,10.053-7
	c1.615-1.061,3.786-0.61,4.847,1.006s0.61,3.786-1.006,4.847c-3.291,2.159-6.567,4.44-9.738,6.78
	C131.234,89.358,130.506,89.581,129.785,89.581z M389.113,89.254c-0.719,0-1.444-0.221-2.068-0.679
	c-3.175-2.331-6.462-4.607-9.768-6.764c-1.619-1.056-2.075-3.225-1.02-4.844c1.058-1.621,3.226-2.075,4.844-1.019
	c3.414,2.227,6.808,4.577,10.086,6.984c1.558,1.144,1.894,3.334,0.75,4.893C391.252,88.76,390.189,89.254,389.113,89.254z
	 M149.937,76.358c-1.207,0-2.382-0.625-3.031-1.744c-0.97-1.672-0.401-3.814,1.271-4.784c3.518-2.041,7.137-4.009,10.756-5.85
	c1.723-0.875,3.83-0.19,4.707,1.533s0.19,3.83-1.533,4.707c-3.505,1.783-7.01,3.689-10.417,5.666
	C151.137,76.206,150.533,76.358,149.937,76.358z M368.895,76.062c-0.594,0-1.194-0.151-1.745-0.468
	c-3.419-1.971-6.938-3.872-10.459-5.65c-1.726-0.872-2.417-2.977-1.546-4.702c0.872-1.725,2.976-2.418,4.702-1.546
	c3.635,1.836,7.269,3.799,10.799,5.834c1.675,0.965,2.25,3.105,1.284,4.78C371.282,75.434,370.104,76.062,368.895,76.062z
	 M171.405,65.438c-1.345,0-2.627-0.779-3.205-2.089c-0.78-1.769,0.022-3.835,1.791-4.615c3.715-1.638,7.526-3.194,11.328-4.625
	c1.812-0.681,3.828,0.234,4.509,2.043c0.681,1.809-0.234,3.828-2.043,4.509c-3.682,1.385-7.372,2.892-10.969,4.478
	C172.356,65.342,171.877,65.438,171.405,65.438z M347.335,65.173c-0.468,0-0.944-0.095-1.4-0.294
	c-3.616-1.582-7.326-3.082-11.025-4.46c-1.812-0.675-2.733-2.69-2.058-4.502c0.675-1.812,2.693-2.731,4.501-2.058
	c3.82,1.423,7.651,2.973,11.387,4.607c1.771,0.774,2.579,2.838,1.805,4.609C349.969,64.389,348.684,65.173,347.335,65.173z
	 M193.957,56.953c-1.488,0-2.868-0.957-3.338-2.452c-0.58-1.844,0.446-3.809,2.29-4.388c3.885-1.221,7.853-2.347,11.794-3.348
	c1.871-0.479,3.778,0.656,4.254,2.53c0.476,1.874-0.657,3.778-2.53,4.254c-3.816,0.97-7.658,2.06-11.419,3.242
	C194.658,56.9,194.304,56.953,193.957,56.953z M324.688,56.734c-0.344,0-0.693-0.051-1.038-0.158
	c-3.764-1.168-7.609-2.246-11.432-3.204c-1.875-0.47-3.015-2.371-2.545-4.246c0.47-1.875,2.378-3.015,4.246-2.544
	c3.947,0.989,7.919,2.102,11.805,3.308c1.847,0.573,2.879,2.534,2.306,4.38C327.564,55.771,326.182,56.734,324.688,56.734z
	 M217.333,51.011c-1.64,0-3.104-1.158-3.431-2.828c-0.372-1.896,0.865-3.736,2.762-4.107c3.989-0.781,8.057-1.462,12.09-2.023
	c1.907-0.267,3.682,1.07,3.949,2.985c0.266,1.915-1.07,3.682-2.985,3.949c-3.906,0.543-7.845,1.202-11.709,1.958
	C217.782,50.99,217.556,51.011,217.333,51.011z M301.293,50.872c-0.22,0-0.441-0.021-0.665-0.063
	c-3.866-0.744-7.808-1.39-11.716-1.92c-1.915-0.26-3.258-2.023-2.997-3.938c0.259-1.915,2.011-3.258,3.938-2.998
	c4.035,0.547,8.104,1.214,12.097,1.982c1.898,0.365,3.141,2.2,2.775,4.099C304.403,49.707,302.938,50.872,301.293,50.872z
	 M241.222,47.688c-1.801,0-3.332-1.382-3.484-3.209c-0.161-1.926,1.271-3.618,3.197-3.779c4.048-0.338,8.166-0.568,12.237-0.685
	c1.924-0.057,3.543,1.466,3.599,3.398s-1.466,3.543-3.398,3.599c-3.945,0.113-7.934,0.336-11.855,0.663
	C241.417,47.684,241.319,47.688,241.222,47.688z M277.392,47.627c-0.094,0-0.188-0.003-0.283-0.011
	c-3.922-0.314-7.911-0.524-11.856-0.624c-1.932-0.049-3.459-1.655-3.41-3.588s1.658-3.466,3.588-3.41
	c4.072,0.104,8.189,0.32,12.237,0.645c1.927,0.154,3.364,1.841,3.21,3.768C280.729,46.239,279.197,47.627,277.392,47.627z"/>
<path fill="#442814" d="M406.421,55.421c-8.822,0-16-7.178-16-16s7.178-16,16-16s16,7.178,16,16S415.243,55.421,406.421,55.421z
	 M406.421,29.421c-5.514,0-10,4.486-10,10s4.486,10,10,10s10-4.486,10-10S411.935,29.421,406.421,29.421z"/>
<path fill="#442814" d="M497.268,395.921c-5.705,0-10.347-4.642-10.347-10.347s4.642-10.347,10.347-10.347
	s10.347,4.642,10.347,10.347S502.973,395.921,497.268,395.921z M497.268,378.228c-4.051,0-7.347,3.296-7.347,7.347
	s3.296,7.347,7.347,7.347s7.347-3.296,7.347-7.347S501.318,378.228,497.268,378.228z"/>
<path fill="#442814" d="M121.421,481.421c-8.822,0-16-7.178-16-16s7.178-16,16-16s16,7.178,16,16S130.243,481.421,121.421,481.421z
	 M121.421,455.421c-5.514,0-10,4.486-10,10s4.486,10,10,10s10-4.486,10-10S126.935,455.421,121.421,455.421z"/>
<circle fill="#442814" cx="432.862" cy="441.863" r="15.441"/>
<g>
	<g>
		<path fill="#442814" d="M36.421,465.421h-10c-1.656,0-3-1.343-3-3s1.344-3,3-3h10c1.656,0,3,1.343,3,3
			S38.077,465.421,36.421,465.421z"/>
		<path fill="#442814" d="M63.421,465.421h-10c-1.656,0-3-1.343-3-3s1.344-3,3-3h10c1.656,0,3,1.343,3,3
			S65.077,465.421,63.421,465.421z"/>
	</g>
	<g>
		<path fill="#442814" d="M44.421,457.421c-1.656,0-3-1.343-3-3v-10c0-1.657,1.344-3,3-3s3,1.343,3,3v10
			C47.421,456.079,46.077,457.421,44.421,457.421z"/>
		<path fill="#442814" d="M44.421,484.421c-1.656,0-3-1.343-3-3v-10c0-1.657,1.344-3,3-3s3,1.343,3,3v10
			C47.421,483.079,46.077,484.421,44.421,484.421z"/>
	</g>
</g>
<g>
	<g>
		<path fill="#442814" d="M94.7,257.421h-7.907c-1.31,0-2.372-1.189-2.372-2.5s1.062-2.5,2.372-2.5H94.7
			c1.31,0,2.372,1.189,2.372,2.5S96.01,257.421,94.7,257.421z"/>
		<path fill="#442814" d="M116.049,257.421h-7.907c-1.31,0-2.372-1.189-2.372-2.5s1.062-2.5,2.372-2.5h7.907
			c1.31,0,2.372,1.189,2.372,2.5S117.358,257.421,116.049,257.421z"/>
	</g>
	<g>
		<path fill="#442814" d="M100.921,251.073c-1.311,0-2.5-1.062-2.5-2.372v-7.907c0-1.311,1.189-2.372,2.5-2.372s2.5,1.062,2.5,2.372
			v7.907C103.421,250.011,102.231,251.073,100.921,251.073z"/>
		<path fill="#442814" d="M100.921,272.421c-1.311,0-2.5-1.062-2.5-2.372v-7.907c0-1.311,1.189-2.372,2.5-2.372s2.5,1.062,2.5,2.372
			v7.907C103.421,271.36,102.231,272.421,100.921,272.421z"/>
	</g>
</g>
<g>
	<g>
		<path fill="#442814" d="M385.542,241.421h-5.739c-0.951,0-1.722-0.549-1.722-1.5s0.771-1.5,1.722-1.5h5.739
			c0.951,0,1.723,0.549,1.723,1.5S386.493,241.421,385.542,241.421z"/>
		<path fill="#442814" d="M401.039,241.421H395.3c-0.951,0-1.723-0.549-1.723-1.5s0.771-1.5,1.723-1.5h5.739
			c0.951,0,1.722,0.549,1.722,1.5S401.99,241.421,401.039,241.421z"/>
	</g>
	<g>
		<path fill="#442814" d="M389.921,237.265c-0.951,0-1.5-0.771-1.5-1.722v-5.74c0-0.951,0.549-1.722,1.5-1.722s1.5,0.771,1.5,1.722
			v5.74C391.421,236.494,390.872,237.265,389.921,237.265z"/>
		<path fill="#442814" d="M389.921,252.761c-0.951,0-1.5-0.771-1.5-1.722v-5.74c0-0.951,0.549-1.722,1.5-1.722s1.5,0.771,1.5,1.722
			v5.74C391.421,251.991,390.872,252.761,389.921,252.761z"/>
	</g>
</g>
<g>
	<g>
		<path fill="#442814" d="M395.092,188.421h-3.917c-0.649,0-1.175-0.351-1.175-1s0.525-1,1.175-1h3.917c0.648,0,1.175,0.351,1.175,1
			S395.74,188.421,395.092,188.421z"/>
		<path fill="#442814" d="M405.667,188.421h-3.917c-0.648,0-1.175-0.351-1.175-1s0.526-1,1.175-1h3.917c0.649,0,1.175,0.351,1.175,1
			S406.316,188.421,405.667,188.421z"/>
	</g>
	<g>
		<path fill="#442814" d="M398.421,185.267c-0.648,0-1-0.526-1-1.175v-3.917c0-0.649,0.352-1.175,1-1.175s1,0.526,1,1.175v3.917
			C399.421,184.741,399.069,185.267,398.421,185.267z"/>
		<path fill="#442814" d="M398.421,195.842c-0.648,0-1-0.526-1-1.175v-3.917c0-0.649,0.352-1.175,1-1.175s1,0.525,1,1.175v3.917
			C399.421,195.316,399.069,195.842,398.421,195.842z"/>
	</g>
</g>
<g>
	<g>
		<path fill="#442814" d="M434.466,72.421H431.8c-0.442,0-0.8-0.058-0.8-0.5c0-0.441,0.357-0.5,0.8-0.5h2.666
			c0.441,0,0.799,0.059,0.799,0.5C435.265,72.363,434.907,72.421,434.466,72.421z"/>
		<path fill="#442814" d="M441.663,72.421h-2.666c-0.441,0-0.8-0.058-0.8-0.5c0-0.441,0.358-0.5,0.8-0.5h2.666
			c0.441,0,0.799,0.059,0.799,0.5C442.462,72.363,442.104,72.421,441.663,72.421z"/>
	</g>
	<g>
		<path fill="#442814" d="M436.921,70.265c-0.441,0-0.5-0.358-0.5-0.799V66.8c0-0.442,0.059-0.8,0.5-0.8s0.5,0.358,0.5,0.8v2.666
			C437.421,69.907,437.362,70.265,436.921,70.265z"/>
		<path fill="#442814" d="M436.921,77.463c-0.441,0-0.5-0.358-0.5-0.8v-2.666c0-0.442,0.059-0.799,0.5-0.799s0.5,0.357,0.5,0.799
			v2.666C437.421,77.105,437.362,77.463,436.921,77.463z"/>
	</g>
</g>
<g>
	<g>
		<path fill="#442814" d="M144.78,35.421h-2.908c-0.482,0-0.872-0.518-0.872-1c0-0.481,0.39-1,0.872-1h2.908
			c0.482,0,0.871,0.519,0.871,1C145.651,34.904,145.263,35.421,144.78,35.421z"/>
		<path fill="#442814" d="M152.632,35.421h-2.908c-0.482,0-0.873-0.518-0.873-1c0-0.481,0.391-1,0.873-1h2.908
			c0.481,0,0.871,0.519,0.871,1C153.503,34.904,153.113,35.421,152.632,35.421z"/>
	</g>
	<g>
		<path fill="#442814" d="M147.421,32.652c-0.481,0-1-0.39-1-0.872v-2.908c0-0.482,0.519-0.873,1-0.873c0.482,0,1,0.391,1,0.873
			v2.908C148.421,32.262,147.903,32.652,147.421,32.652z"/>
		<path fill="#442814" d="M147.421,40.504c-0.481,0-1-0.39-1-0.873v-2.908c0-0.482,0.519-0.872,1-0.872c0.482,0,1,0.39,1,0.872
			v2.908C148.421,40.114,147.903,40.504,147.421,40.504z"/>
	</g>
</g>
<g>
	<g>
		<path fill="#442814" d="M7.96,181.421H1.837c-1.016,0-1.837-0.485-1.837-1.5s0.821-1.5,1.837-1.5H7.96
			c1.014,0,1.837,0.485,1.837,1.5S8.974,181.421,7.96,181.421z"/>
		<path fill="#442814" d="M24.492,181.421h-6.124c-1.014,0-1.836-0.485-1.836-1.5s0.822-1.5,1.836-1.5h6.124
			c1.015,0,1.837,0.485,1.837,1.5S25.507,181.421,24.492,181.421z"/>
	</g>
	<g>
		<path fill="#442814" d="M12.921,176.797c-1.014,0-1.5-0.823-1.5-1.836v-6.125c0-1.014,0.486-1.836,1.5-1.836s1.5,0.822,1.5,1.836
			v6.125C14.421,175.975,13.935,176.797,12.921,176.797z"/>
		<path fill="#442814" d="M12.921,193.33c-1.014,0-1.5-0.822-1.5-1.836v-6.124c0-1.015,0.486-1.836,1.5-1.836s1.5,0.821,1.5,1.836
			v6.124C14.421,192.507,13.935,193.33,12.921,193.33z"/>
	</g>
</g>
<g>
	<g>
		<path fill="#442814" d="M123.441,11.421h-4.963c-0.823,0-1.489-0.178-1.489-1s0.666-1,1.489-1h4.963c0.821,0,1.489,0.178,1.489,1
			S124.263,11.421,123.441,11.421z"/>
		<path fill="#442814" d="M136.841,11.421h-4.963c-0.822,0-1.489-0.178-1.489-1s0.667-1,1.489-1h4.963c0.822,0,1.488,0.178,1.488,1
			S137.663,11.421,136.841,11.421z"/>
	</g>
	<g>
		<path fill="#442814" d="M127.421,7.94c-0.821,0-1-0.667-1-1.488V1.488c0-0.822,0.179-1.488,1-1.488c0.822,0,1,0.667,1,1.488v4.964
			C128.421,7.274,128.243,7.94,127.421,7.94z"/>
		<path fill="#442814" d="M127.421,21.339c-0.821,0-1-0.666-1-1.488v-4.963c0-0.823,0.179-1.488,1-1.488c0.822,0,1,0.666,1,1.488
			v4.963C128.421,20.673,128.243,21.339,127.421,21.339z"/>
	</g>
</g>
</svg>
